<svg width="1440" height="499" viewBox="0 0 1440 499" fill="none" xmlns="http://www.w3.org/2000/svg">
<g clip-path="url(#clip0_1606_1547)">
<g opacity="0.2">
<path opacity="0.5" d="M348.779 114.021H345.731V775.883H348.779V114.021Z" fill="url(#paint0_linear_1606_1547)"/>
<path opacity="0.5" d="M577.059 268.358H574.012V1133.77H577.059V268.358Z" fill="url(#paint1_linear_1606_1547)"/>
<path d="M580.106 268.359C580.106 265.961 578.147 264 575.753 264C573.358 264 571.399 265.961 571.399 268.359C571.399 270.756 573.358 272.717 575.753 272.717C578.147 272.717 580.106 270.756 580.106 268.359Z" fill="#18FFFF"/>
<path opacity="0.5" d="M455 311H452V737H455V311Z" fill="url(#paint2_linear_1606_1547)"/>
<path d="M457 311.488C457 309.495 455.5 308 453.5 308C451.5 308 450 309.495 450 311.488C450 313.481 451.5 314.976 453.5 314.976C455.5 315.225 457 313.481 457 311.488Z" fill="#18FFFF"/>
<path opacity="0.5" d="M140.571 361.051H137.523V923.753H140.571V361.051Z" fill="url(#paint3_linear_1606_1547)"/>
<path opacity="0.5" d="M488.735 400.385H486.123V695.248H488.735V400.385Z" fill="url(#paint4_linear_1606_1547)"/>
<path opacity="0.5" d="M835.689 246.307H833.077V541.17H835.689V246.307Z" fill="url(#paint5_linear_1606_1547)"/>
<path opacity="0.5" d="M1348.13 213.051H1345.52V507.914H1348.13V213.051Z" fill="url(#paint6_linear_1606_1547)"/>
<path opacity="0.5" d="M271.658 445.358H269.046V740.222H271.658V445.358Z" fill="url(#paint7_linear_1606_1547)"/>
<path opacity="0.5" d="M319.612 289.021H316.564V851.724H319.612V289.021Z" fill="url(#paint8_linear_1606_1547)"/>
<path opacity="0.5" d="M821.658 159.358H818.611V722.061H821.658V159.358Z" fill="url(#paint9_linear_1606_1547)"/>
<path opacity="0.5" d="M776.701 383.387H773.654V946.089H776.701V383.387Z" fill="url(#paint10_linear_1606_1547)"/>
<path opacity="0.5" d="M1310 385H1308V622H1310V385Z" fill="url(#paint11_linear_1606_1547)"/>
<path opacity="0.5" d="M1387.92 172.051H1386.18V649.324H1387.92V172.051Z" fill="url(#paint12_linear_1606_1547)"/>
<path opacity="0.5" d="M1437.74 280H1436V757.273H1437.74V280Z" fill="url(#paint13_linear_1606_1547)"/>
<path opacity="0.5" d="M1409.66 468.816H1407.92V946.089H1409.66V468.816Z" fill="url(#paint14_linear_1606_1547)"/>
<path opacity="0.5" d="M1049.43 290.765H1047.69V768.037H1049.43V290.765Z" fill="url(#paint15_linear_1606_1547)"/>
<path opacity="0.5" d="M999.37 333.479H997.629V810.752H999.37V333.479Z" fill="url(#paint16_linear_1606_1547)"/>
<path opacity="0.5" d="M1012.87 190.951H1011.12V668.224H1012.87V190.951Z" fill="url(#paint17_linear_1606_1547)"/>
<path opacity="0.5" d="M1038.55 244.127H1036.81V721.4H1038.55V244.127Z" fill="url(#paint18_linear_1606_1547)"/>
<path opacity="0.5" d="M1025.49 376.194H1023.75V853.467H1025.49V376.194Z" fill="url(#paint19_linear_1606_1547)"/>
<path opacity="0.5" d="M991.534 105.359H990.011V970.77H991.534V105.359Z" fill="url(#paint20_linear_1606_1547)"/>
<path opacity="0.5" d="M27.9453 871.12H29.6866V393.629H27.9453V871.12Z" fill="url(#paint21_linear_1606_1547)"/>
<path opacity="0.5" d="M36.4814 515.631H38.2227V38.3584H36.4814V515.631Z" fill="url(#paint22_linear_1606_1547)"/>
<path opacity="0.5" d="M85.8428 1101.04H87.3664V235.41H85.8428V1101.04Z" fill="url(#paint23_linear_1606_1547)"/>
<path d="M41.7065 38.3587C41.7065 35.9614 39.7475 34 37.3532 34C34.959 34 33 35.9614 33 38.3587C33 40.7559 34.959 42.7173 37.3532 42.7173C39.7475 42.7173 41.7065 40.7559 41.7065 38.3587Z" fill="#18FFFF"/>
<path d="M274.706 445.359C274.706 442.961 272.748 441 270.353 441C267.959 441 266 442.961 266 445.359C266 447.756 267.959 449.717 270.353 449.717C272.748 449.717 274.706 447.756 274.706 445.359Z" fill="#18FFFF"/>
<path d="M322.442 289.675C322.442 287.278 320.483 285.316 318.088 285.316C315.694 285.316 313.735 287.278 313.735 289.675C313.735 292.072 315.694 294.034 318.088 294.034C320.483 294.252 322.442 292.29 322.442 289.675Z" fill="#18FFFF"/>
<path d="M351.826 112.06C351.826 109.663 349.867 107.701 347.473 107.701C345.078 107.701 343.12 109.663 343.12 112.06C343.12 114.457 345.078 116.418 347.473 116.418C349.867 116.418 351.826 114.457 351.826 112.06Z" fill="#18FFFF"/>
<path d="M492.001 400.385C492.001 397.988 490.042 396.026 487.647 396.026C485.253 396.026 483.294 397.988 483.294 400.385C483.294 402.782 485.253 404.744 487.647 404.744C489.824 404.962 492.001 402.782 492.001 400.385Z" fill="#18FFFF"/>
<path d="M779.532 383.386C779.532 380.989 777.573 379.027 775.178 379.027C772.784 379.027 770.825 380.989 770.825 383.386C770.825 385.783 772.784 387.745 775.178 387.745C777.573 387.963 779.532 385.783 779.532 383.386Z" fill="#18FFFF"/>
<path d="M838.953 246.306C838.953 243.909 836.994 241.947 834.6 241.947C832.205 241.947 830.247 243.909 830.247 246.306C830.247 248.703 832.205 250.665 834.6 250.665C836.994 250.665 838.953 248.703 838.953 246.306Z" fill="#18FFFF"/>
<path d="M824.489 159.359C824.489 156.961 822.53 155 820.135 155C817.741 155 815.782 156.961 815.782 159.359C815.782 161.756 817.741 163.717 820.135 163.717C822.53 163.935 824.489 161.974 824.489 159.359Z" fill="#18FFFF"/>
<path d="M995.017 105.359C995.017 102.961 993.058 101 990.664 101C988.27 101 986.311 102.961 986.311 105.359C986.311 107.756 988.27 109.717 990.664 109.717C993.058 109.717 995.017 107.756 995.017 105.359Z" fill="#18FFFF"/>
<path d="M998.5 336.095C999.942 336.095 1001.11 334.924 1001.11 333.479C1001.11 332.035 999.942 330.864 998.5 330.864C997.057 330.864 995.888 332.035 995.888 333.479C995.888 334.924 997.057 336.095 998.5 336.095Z" fill="#18FFFF"/>
<path d="M1015.04 190.951C1015.04 189.208 1013.74 187.9 1011.99 187.9C1010.25 187.9 1008.95 189.208 1008.95 190.951C1008.95 192.695 1010.25 194.002 1011.99 194.002C1013.74 194.002 1015.04 192.695 1015.04 190.951Z" fill="#18FFFF"/>
<path d="M1040.73 244.127C1040.73 242.384 1039.42 241.076 1037.68 241.076C1035.94 241.076 1034.63 242.384 1034.63 244.127C1034.63 245.871 1035.94 247.178 1037.68 247.178C1039.2 247.396 1040.73 245.871 1040.73 244.127Z" fill="#18FFFF"/>
<path d="M1051.83 290.765C1051.83 289.021 1050.52 287.714 1048.78 287.714C1047.04 287.714 1045.73 289.021 1045.73 290.765C1045.73 292.508 1047.04 293.816 1048.78 293.816C1050.52 294.034 1051.83 292.508 1051.83 290.765Z" fill="#18FFFF"/>
<path d="M1350.09 213.051C1350.09 211.308 1348.79 210 1347.05 210C1345.31 210 1344 211.308 1344 213.051C1344 214.795 1345.31 216.102 1347.05 216.102C1348.79 216.102 1350.09 214.577 1350.09 213.051Z" fill="#18FFFF"/>
<path d="M1390.09 172.051C1390.09 170.308 1388.79 169 1387.05 169C1385.31 169 1384 170.308 1384 172.051C1384 173.794 1385.31 175.102 1387.05 175.102C1388.79 175.102 1390.09 173.794 1390.09 172.051Z" fill="#18FFFF"/>
<path d="M1440.09 279.051C1440.09 277.308 1438.79 276 1437.05 276C1435.31 276 1434 277.308 1434 279.051C1434 280.795 1435.31 282.102 1437.05 282.102C1438.79 282.102 1440.09 280.795 1440.09 279.051Z" fill="#18FFFF"/>
<path d="M1411.84 468.816C1411.84 467.072 1410.53 465.765 1408.79 465.765C1407.05 465.765 1405.74 467.072 1405.74 468.816C1405.74 470.559 1407.05 471.867 1408.79 471.867C1410.53 471.867 1411.84 470.559 1411.84 468.816Z" fill="#18FFFF"/>
<path d="M1312.09 385.051C1312.09 383.308 1310.79 382 1309.05 382C1307.31 382 1306 383.308 1306 385.051C1306 386.795 1307.31 388.102 1309.05 388.102C1310.79 388.102 1312.09 386.795 1312.09 385.051Z" fill="#18FFFF"/>
<path d="M1024.62 377.938C1025.58 377.938 1026.36 377.158 1026.36 376.195C1026.36 375.232 1025.58 374.451 1024.62 374.451C1023.66 374.451 1022.88 375.232 1022.88 376.195C1022.88 377.158 1023.66 377.938 1024.62 377.938Z" fill="#18FFFF"/>
<path d="M89.7608 235.41C89.7608 233.667 88.4548 232.359 86.7135 232.359C84.9722 232.359 83.6663 233.667 83.6663 235.41C83.6663 237.154 84.9722 238.462 86.7135 238.462C88.4548 238.679 89.7608 237.154 89.7608 235.41Z" fill="#18FFFF"/>
<path d="M31.8633 393.629C31.8633 391.886 30.5573 390.578 28.8161 390.578C27.0748 390.578 25.7688 391.886 25.7688 393.629C25.7688 395.373 27.0748 396.68 28.8161 396.68C30.5573 396.898 31.8633 395.373 31.8633 393.629Z" fill="#18FFFF"/>
<path d="M142.095 361.051C142.095 359.308 140.789 358 139.047 358C137.306 358 136 359.308 136 361.051C136 362.795 137.306 364.102 139.047 364.102C140.789 364.32 142.095 362.795 142.095 361.051Z" fill="#18FFFF"/>
</g>
<mask id="mask0_1606_1547" style="mask-type:alpha" maskUnits="userSpaceOnUse" x="1082" y="190" width="249" height="248">
<path d="M1206.68 438C1275.17 438 1330.68 382.483 1330.68 314C1330.68 245.517 1275.17 190 1206.68 190C1138.2 190 1082.68 245.517 1082.68 314C1082.68 382.483 1138.2 438 1206.68 438Z" fill="url(#paint24_linear_1606_1547)"/>
</mask>
<g mask="url(#mask0_1606_1547)">
<g opacity="0.4">
<path d="M1335.53 312.084H1051.54V321.851H1335.53V312.084Z" fill="#A3A3A3"/>
<path d="M1335.53 330.446H1051.54V336.567H1335.53V330.446Z" fill="#A3A3A3"/>
<path d="M1335.53 344.381H1051.54V348.548H1335.53V344.381Z" fill="#A3A3A3"/>
<path d="M1335.53 359.097H1051.54V362.613H1335.53V359.097Z" fill="#A3A3A3"/>
<path d="M1335.53 371.078H1051.54V374.594H1335.53V371.078Z" fill="#A3A3A3"/>
<path d="M1335.53 296.196H1051.54V300.103H1335.53V296.196Z" fill="#A3A3A3"/>
</g>
</g>
<path opacity="0.7" d="M1206.68 438C1275.17 438 1330.68 382.483 1330.68 314C1330.68 245.517 1275.17 190 1206.68 190C1138.2 190 1082.68 245.517 1082.68 314C1082.68 382.483 1138.2 438 1206.68 438Z" fill="url(#paint25_radial_1606_1547)"/>
<path d="M657.873 411.945L772.535 361.433L831.965 323.191L935.212 327.175L1057.76 348.208L1286.75 409.714L1462.53 533.841H526.758L657.873 411.945Z" fill="url(#paint26_linear_1606_1547)"/>
<path d="M359.381 392.823L319.089 348.208L220.879 284.949L62.7354 317.296L-50.2483 400.153L-62 531.132L65.2536 533.84H394.804L359.381 392.823Z" fill="url(#paint27_linear_1606_1547)"/>
<path d="M65.2534 533.841C72.8081 522.687 251.937 378.961 251.937 378.961L596.932 327.175L757 386.5L1034.26 399.197L1227.83 354.582L1441.71 381.192L1502.65 534H65.2534V533.841Z" fill="url(#paint28_linear_1606_1547)"/>
<path d="M596.932 327.175L505.605 408.758L428.715 430.587L353.001 439.51L230.448 533.841H65.2534L251.937 378.961L596.932 327.175Z" fill="url(#paint29_linear_1606_1547)"/>
<path d="M843.5 377.5L725.361 390.593L657.033 418.318L625.807 435.208L653.676 465.005L545.225 533.841L797.046 534L875.278 451.302L902.475 430.587L1034.26 399.197L843.5 377.5Z" fill="url(#paint30_linear_1606_1547)"/>
<path d="M1227.83 354.581L1290.62 388.521L1270.47 411.944L1217.76 436.323L1208.52 469.785L1108.13 533.84H1502.65L1441.71 381.032L1227.83 354.581Z" fill="url(#paint31_linear_1606_1547)"/>
<path d="M220.879 284.949L242.368 333.548L202.412 382.944L65.2536 533.84L-62 531.132L-50.2483 400.153L62.7354 317.296L220.879 284.949Z" fill="url(#paint32_linear_1606_1547)"/>
</g>
<defs>
<linearGradient id="paint0_linear_1606_1547" x1="347.33" y1="114.003" x2="347.33" y2="775.935" gradientUnits="userSpaceOnUse">
<stop offset="0.00707206" stop-color="#1BF5FF"/>
<stop offset="0.21968" stop-color="#33AFFF"/>
<stop offset="0.396774" stop-color="#8E48FF"/>
<stop offset="0.672832" stop-color="#8E48FF" stop-opacity="0"/>
<stop offset="1" stop-color="#33AFFF" stop-opacity="0"/>
</linearGradient>
<linearGradient id="paint1_linear_1606_1547" x1="575.61" y1="268.334" x2="575.61" y2="1133.84" gradientUnits="userSpaceOnUse">
<stop offset="0.00707206" stop-color="#1BF5FF"/>
<stop offset="0.21968" stop-color="#33AFFF"/>
<stop offset="0.396774" stop-color="#8E48FF"/>
<stop offset="0.672832" stop-color="#8E48FF" stop-opacity="0"/>
<stop offset="1" stop-color="#33AFFF" stop-opacity="0"/>
</linearGradient>
<linearGradient id="paint2_linear_1606_1547" x1="453.574" y1="310.988" x2="453.574" y2="737.033" gradientUnits="userSpaceOnUse">
<stop offset="0.00707206" stop-color="#1BF5FF"/>
<stop offset="0.21968" stop-color="#33AFFF"/>
<stop offset="0.396774" stop-color="#8E48FF"/>
<stop offset="0.672832" stop-color="#8E48FF" stop-opacity="0"/>
<stop offset="1" stop-color="#33AFFF" stop-opacity="0"/>
</linearGradient>
<linearGradient id="paint3_linear_1606_1547" x1="139.122" y1="361.035" x2="139.122" y2="923.797" gradientUnits="userSpaceOnUse">
<stop offset="0.00707206" stop-color="#1BF5FF"/>
<stop offset="0.21968" stop-color="#33AFFF"/>
<stop offset="0.396774" stop-color="#8E48FF"/>
<stop offset="0.672832" stop-color="#8E48FF" stop-opacity="0"/>
<stop offset="1" stop-color="#33AFFF" stop-opacity="0"/>
</linearGradient>
<linearGradient id="paint4_linear_1606_1547" x1="487.493" y1="400.376" x2="487.493" y2="695.271" gradientUnits="userSpaceOnUse">
<stop offset="0.00707206" stop-color="#1BF5FF"/>
<stop offset="0.21968" stop-color="#33AFFF"/>
<stop offset="0.396774" stop-color="#8E48FF"/>
<stop offset="0.672832" stop-color="#8E48FF" stop-opacity="0"/>
<stop offset="1" stop-color="#33AFFF" stop-opacity="0"/>
</linearGradient>
<linearGradient id="paint5_linear_1606_1547" x1="834.447" y1="246.298" x2="834.447" y2="541.193" gradientUnits="userSpaceOnUse">
<stop offset="0.00707206" stop-color="#1BF5FF"/>
<stop offset="0.21968" stop-color="#33AFFF"/>
<stop offset="0.396774" stop-color="#8E48FF"/>
<stop offset="0.672832" stop-color="#8E48FF" stop-opacity="0"/>
<stop offset="1" stop-color="#33AFFF" stop-opacity="0"/>
</linearGradient>
<linearGradient id="paint6_linear_1606_1547" x1="1346.89" y1="213.042" x2="1346.89" y2="507.937" gradientUnits="userSpaceOnUse">
<stop offset="0.00707206" stop-color="#1BF5FF"/>
<stop offset="0.21968" stop-color="#33AFFF"/>
<stop offset="0.396774" stop-color="#8E48FF"/>
<stop offset="0.672832" stop-color="#8E48FF" stop-opacity="0"/>
<stop offset="1" stop-color="#33AFFF" stop-opacity="0"/>
</linearGradient>
<linearGradient id="paint7_linear_1606_1547" x1="270.416" y1="445.35" x2="270.416" y2="740.245" gradientUnits="userSpaceOnUse">
<stop offset="0.00707206" stop-color="#1BF5FF"/>
<stop offset="0.21968" stop-color="#33AFFF"/>
<stop offset="0.396774" stop-color="#8E48FF"/>
<stop offset="0.672832" stop-color="#8E48FF" stop-opacity="0"/>
<stop offset="1" stop-color="#33AFFF" stop-opacity="0"/>
</linearGradient>
<linearGradient id="paint8_linear_1606_1547" x1="318.163" y1="289.006" x2="318.163" y2="851.768" gradientUnits="userSpaceOnUse">
<stop offset="0.00707206" stop-color="#1BF5FF"/>
<stop offset="0.21968" stop-color="#33AFFF"/>
<stop offset="0.396774" stop-color="#8E48FF"/>
<stop offset="0.672832" stop-color="#8E48FF" stop-opacity="0"/>
<stop offset="1" stop-color="#33AFFF" stop-opacity="0"/>
</linearGradient>
<linearGradient id="paint9_linear_1606_1547" x1="820.21" y1="159.342" x2="820.21" y2="722.105" gradientUnits="userSpaceOnUse">
<stop offset="0.00707206" stop-color="#1BF5FF"/>
<stop offset="0.21968" stop-color="#33AFFF"/>
<stop offset="0.396774" stop-color="#8E48FF"/>
<stop offset="0.672832" stop-color="#8E48FF" stop-opacity="0"/>
<stop offset="1" stop-color="#33AFFF" stop-opacity="0"/>
</linearGradient>
<linearGradient id="paint10_linear_1606_1547" x1="775.253" y1="383.371" x2="775.253" y2="946.133" gradientUnits="userSpaceOnUse">
<stop offset="0.00707206" stop-color="#1BF5FF"/>
<stop offset="0.21968" stop-color="#33AFFF"/>
<stop offset="0.396774" stop-color="#8E48FF"/>
<stop offset="0.672832" stop-color="#8E48FF" stop-opacity="0"/>
<stop offset="1" stop-color="#33AFFF" stop-opacity="0"/>
</linearGradient>
<linearGradient id="paint11_linear_1606_1547" x1="1309.05" y1="384.993" x2="1309.05" y2="622.019" gradientUnits="userSpaceOnUse">
<stop offset="0.00707206" stop-color="#1BF5FF"/>
<stop offset="0.21968" stop-color="#33AFFF"/>
<stop offset="0.396774" stop-color="#8E48FF"/>
<stop offset="0.672832" stop-color="#8E48FF" stop-opacity="0"/>
<stop offset="1" stop-color="#33AFFF" stop-opacity="0"/>
</linearGradient>
<linearGradient id="paint12_linear_1606_1547" x1="1387.09" y1="172.037" x2="1387.09" y2="649.361" gradientUnits="userSpaceOnUse">
<stop offset="0.00707206" stop-color="#1BF5FF"/>
<stop offset="0.21968" stop-color="#33AFFF"/>
<stop offset="0.396774" stop-color="#8E48FF"/>
<stop offset="0.672832" stop-color="#8E48FF" stop-opacity="0"/>
<stop offset="1" stop-color="#33AFFF" stop-opacity="0"/>
</linearGradient>
<linearGradient id="paint13_linear_1606_1547" x1="1436.91" y1="279.986" x2="1436.91" y2="757.31" gradientUnits="userSpaceOnUse">
<stop offset="0.00707206" stop-color="#1BF5FF"/>
<stop offset="0.21968" stop-color="#33AFFF"/>
<stop offset="0.396774" stop-color="#8E48FF"/>
<stop offset="0.672832" stop-color="#8E48FF" stop-opacity="0"/>
<stop offset="1" stop-color="#33AFFF" stop-opacity="0"/>
</linearGradient>
<linearGradient id="paint14_linear_1606_1547" x1="1408.84" y1="468.803" x2="1408.84" y2="946.127" gradientUnits="userSpaceOnUse">
<stop offset="0.00707206" stop-color="#1BF5FF"/>
<stop offset="0.21968" stop-color="#33AFFF"/>
<stop offset="0.396774" stop-color="#8E48FF"/>
<stop offset="0.672832" stop-color="#8E48FF" stop-opacity="0"/>
<stop offset="1" stop-color="#33AFFF" stop-opacity="0"/>
</linearGradient>
<linearGradient id="paint15_linear_1606_1547" x1="1048.6" y1="290.751" x2="1048.6" y2="768.075" gradientUnits="userSpaceOnUse">
<stop offset="0.00707206" stop-color="#1BF5FF"/>
<stop offset="0.21968" stop-color="#33AFFF"/>
<stop offset="0.396774" stop-color="#8E48FF"/>
<stop offset="0.672832" stop-color="#8E48FF" stop-opacity="0"/>
<stop offset="1" stop-color="#33AFFF" stop-opacity="0"/>
</linearGradient>
<linearGradient id="paint16_linear_1606_1547" x1="998.542" y1="333.466" x2="998.542" y2="810.79" gradientUnits="userSpaceOnUse">
<stop offset="0.00707206" stop-color="#1BF5FF"/>
<stop offset="0.21968" stop-color="#33AFFF"/>
<stop offset="0.396774" stop-color="#8E48FF"/>
<stop offset="0.672832" stop-color="#8E48FF" stop-opacity="0"/>
<stop offset="1" stop-color="#33AFFF" stop-opacity="0"/>
</linearGradient>
<linearGradient id="paint17_linear_1606_1547" x1="1012.04" y1="190.938" x2="1012.04" y2="668.262" gradientUnits="userSpaceOnUse">
<stop offset="0.00707206" stop-color="#1BF5FF"/>
<stop offset="0.21968" stop-color="#33AFFF"/>
<stop offset="0.396774" stop-color="#8E48FF"/>
<stop offset="0.672832" stop-color="#8E48FF" stop-opacity="0"/>
<stop offset="1" stop-color="#33AFFF" stop-opacity="0"/>
</linearGradient>
<linearGradient id="paint18_linear_1606_1547" x1="1037.72" y1="244.113" x2="1037.72" y2="721.437" gradientUnits="userSpaceOnUse">
<stop offset="0.00707206" stop-color="#1BF5FF"/>
<stop offset="0.21968" stop-color="#33AFFF"/>
<stop offset="0.396774" stop-color="#8E48FF"/>
<stop offset="0.672832" stop-color="#8E48FF" stop-opacity="0"/>
<stop offset="1" stop-color="#33AFFF" stop-opacity="0"/>
</linearGradient>
<linearGradient id="paint19_linear_1606_1547" x1="1024.66" y1="376.181" x2="1024.66" y2="853.505" gradientUnits="userSpaceOnUse">
<stop offset="0.00707206" stop-color="#1BF5FF"/>
<stop offset="0.21968" stop-color="#33AFFF"/>
<stop offset="0.396774" stop-color="#8E48FF"/>
<stop offset="0.672832" stop-color="#8E48FF" stop-opacity="0"/>
<stop offset="1" stop-color="#33AFFF" stop-opacity="0"/>
</linearGradient>
<linearGradient id="paint20_linear_1606_1547" x1="990.81" y1="105.335" x2="990.81" y2="970.838" gradientUnits="userSpaceOnUse">
<stop offset="0.00707206" stop-color="#1BF5FF"/>
<stop offset="0.21968" stop-color="#33AFFF"/>
<stop offset="0.396774" stop-color="#8E48FF"/>
<stop offset="0.672832" stop-color="#8E48FF" stop-opacity="0"/>
<stop offset="1" stop-color="#33AFFF" stop-opacity="0"/>
</linearGradient>
<linearGradient id="paint21_linear_1606_1547" x1="28.8586" y1="393.615" x2="28.8586" y2="871.157" gradientUnits="userSpaceOnUse">
<stop offset="0.00707206" stop-color="#1BF5FF"/>
<stop offset="0.21968" stop-color="#33AFFF"/>
<stop offset="0.396774" stop-color="#8E48FF"/>
<stop offset="0.672832" stop-color="#8E48FF" stop-opacity="0"/>
<stop offset="1" stop-color="#33AFFF" stop-opacity="0"/>
</linearGradient>
<linearGradient id="paint22_linear_1606_1547" x1="37.3948" y1="38.3449" x2="37.3948" y2="515.669" gradientUnits="userSpaceOnUse">
<stop offset="0.00707206" stop-color="#1BF5FF"/>
<stop offset="0.21968" stop-color="#33AFFF"/>
<stop offset="0.396774" stop-color="#8E48FF"/>
<stop offset="0.672832" stop-color="#8E48FF" stop-opacity="0"/>
<stop offset="1" stop-color="#33AFFF" stop-opacity="0"/>
</linearGradient>
<linearGradient id="paint23_linear_1606_1547" x1="86.6419" y1="235.386" x2="86.6419" y2="1101.11" gradientUnits="userSpaceOnUse">
<stop offset="0.00707206" stop-color="#1BF5FF"/>
<stop offset="0.21968" stop-color="#33AFFF"/>
<stop offset="0.396774" stop-color="#8E48FF"/>
<stop offset="0.672832" stop-color="#8E48FF" stop-opacity="0"/>
<stop offset="1" stop-color="#33AFFF" stop-opacity="0"/>
</linearGradient>
<linearGradient id="paint24_linear_1606_1547" x1="1209.62" y1="216.984" x2="1202.69" y2="444.265" gradientUnits="userSpaceOnUse">
<stop stop-color="#4FFFE4" stop-opacity="0"/>
<stop offset="0.5422" stop-color="#5EF8CD" stop-opacity="0.5422"/>
<stop offset="1" stop-color="#68F3BE"/>
</linearGradient>
<radialGradient id="paint25_radial_1606_1547" cx="0" cy="0" r="1" gradientUnits="userSpaceOnUse" gradientTransform="translate(1206.37 77.2255) rotate(90) scale(344.56)">
<stop stop-color="#4FDFFF" stop-opacity="0"/>
<stop offset="0.303579" stop-color="#5EF8F8" stop-opacity="0"/>
<stop offset="0.654006" stop-color="#62D2F6" stop-opacity="0.505868"/>
<stop offset="1" stop-color="#68DAF3"/>
</radialGradient>
<linearGradient id="paint26_linear_1606_1547" x1="1035" y1="480" x2="1013.21" y2="291.827" gradientUnits="userSpaceOnUse">
<stop offset="0.00126075" stop-color="#79299F"/>
<stop offset="1" stop-color="#F2519D"/>
</linearGradient>
<linearGradient id="paint27_linear_1606_1547" x1="195.176" y1="534.103" x2="163.965" y2="258.689" gradientUnits="userSpaceOnUse">
<stop offset="0.00126075" stop-color="#933BBD"/>
<stop offset="1" stop-color="#F2519D"/>
</linearGradient>
<linearGradient id="paint28_linear_1606_1547" x1="874.492" y1="534.218" x2="867.561" y2="302.622" gradientUnits="userSpaceOnUse">
<stop offset="0.00126075" stop-color="#79299F"/>
<stop offset="1" stop-color="#F2519D"/>
</linearGradient>
<linearGradient id="paint29_linear_1606_1547" x1="364.583" y1="534.058" x2="345.979" y2="303.937" gradientUnits="userSpaceOnUse">
<stop offset="0.00126075" stop-color="#79299F"/>
<stop offset="1" stop-color="#F2519D"/>
</linearGradient>
<linearGradient id="paint30_linear_1606_1547" x1="820.547" y1="534.165" x2="808.924" y2="359.538" gradientUnits="userSpaceOnUse">
<stop offset="0.00126075" stop-color="#79299F"/>
<stop offset="1" stop-color="#F2519D"/>
</linearGradient>
<linearGradient id="paint31_linear_1606_1547" x1="1330.24" y1="534.029" x2="1311.42" y2="334.899" gradientUnits="userSpaceOnUse">
<stop offset="0.00126075" stop-color="#933BBD"/>
<stop offset="1" stop-color="#F2519D"/>
</linearGradient>
<linearGradient id="paint32_linear_1606_1547" x1="109.356" y1="534.103" x2="63.2467" y2="262.995" gradientUnits="userSpaceOnUse">
<stop offset="0.00126075" stop-color="#79299F"/>
<stop offset="1" stop-color="#F2519D"/>
</linearGradient>
<clipPath id="clip0_1606_1547">
<rect width="1440" height="501" fill="white"/>
</clipPath>
</defs>
</svg>
