<svg width="78" height="78" viewBox="0 0 78 78" fill="none" xmlns="http://www.w3.org/2000/svg">
<g clip-path="url(#clip0_1654_441)">
<path fill-rule="evenodd" clip-rule="evenodd" d="M76.7812 73.5233H71.3508V30.7832C71.3508 30.46 71.2224 30.15 70.9938 29.9214C70.7653 29.6929 70.4553 29.5645 70.1321 29.5645H58.8062C58.483 29.5645 58.173 29.6929 57.9444 29.9214C57.7159 30.15 57.5875 30.46 57.5875 30.7832V73.5233H54.3715V40.2511C54.3715 39.9278 54.2431 39.6179 54.0145 39.3893C53.786 39.1607 53.476 39.0323 53.1527 39.0323H41.8266C41.5033 39.0323 41.1934 39.1607 40.9648 39.3893C40.7362 39.6179 40.6078 39.9278 40.6078 40.2511V73.523H37.3919V49.7174C37.3919 49.3942 37.2635 49.0842 37.0349 48.8556C36.8063 48.6271 36.4963 48.4987 36.1731 48.4987H24.8473C24.524 48.4987 24.214 48.6271 23.9855 48.8556C23.7569 49.0842 23.6285 49.3942 23.6285 49.7174V73.5233H20.4125V59.1847C20.4125 58.8614 20.2841 58.5514 20.0556 58.3229C19.827 58.0943 19.517 57.9659 19.1938 57.9659H7.8681C7.54487 57.9659 7.23487 58.0943 7.00631 58.3229C6.77775 58.5514 6.64935 58.8614 6.64935 59.1847V73.5233H1.21875C0.895517 73.5233 0.585524 73.6517 0.356964 73.8802C0.128404 74.1088 0 74.4188 0 74.742C0 75.0653 0.128404 75.3752 0.356964 75.6038C0.585524 75.8324 0.895517 75.9608 1.21875 75.9608H76.7812C77.1045 75.9608 77.4145 75.8324 77.643 75.6038C77.8716 75.3752 78 75.0653 78 74.742C78 74.4188 77.8716 74.1088 77.643 73.8802C77.4145 73.6517 77.1045 73.5233 76.7812 73.5233ZM11.6625 46.378C11.3558 46.3772 11.0606 46.2607 10.836 46.0517C10.6113 45.8428 10.4737 45.5569 10.4507 45.251C10.4276 44.9451 10.5207 44.6417 10.7115 44.4015C10.9022 44.1612 11.1765 44.0017 11.4797 43.9549C27.8682 41.4584 42.9442 30.3592 52.9835 13.4421L47.1639 9.0334C46.9825 8.89598 46.8432 8.71051 46.7617 8.49799C46.6803 8.28546 46.66 8.05438 46.7031 7.83091C46.7462 7.60744 46.8511 7.40051 47.0058 7.23355C47.1604 7.0666 47.3588 6.9463 47.5783 6.88626L65.1804 2.0821C65.3605 2.03294 65.5494 2.02579 65.7327 2.06119C65.9159 2.0966 66.0886 2.17362 66.2374 2.28632C66.3861 2.39901 66.507 2.54437 66.5907 2.71119C66.6745 2.878 66.7187 3.06181 66.7202 3.24845L66.8614 21.4936C66.8631 21.7212 66.8011 21.9448 66.6823 22.139C66.5636 22.3331 66.3928 22.4902 66.1893 22.5923C65.9859 22.6944 65.7579 22.7375 65.5313 22.7167C65.3046 22.6958 65.0883 22.612 64.9068 22.4745L60.6048 19.2156C54.8199 26.7081 47.6684 33.0374 39.5285 37.8689C30.5129 43.1924 20.8883 46.1352 11.6953 46.378H11.6625Z" fill="url(#paint0_linear_1654_441)"/>
</g>
<defs>
<linearGradient id="paint0_linear_1654_441" x1="47.9454" y1="7.65774" x2="12.2671" y2="71.239" gradientUnits="userSpaceOnUse">
<stop stop-color="#DF18FF"/>
<stop offset="1" stop-color="#FA18FF" stop-opacity="0"/>
</linearGradient>
<clipPath id="clip0_1654_441">
<rect width="78" height="78" fill="white"/>
</clipPath>
</defs>
</svg>
