<svg width="48" height="48" viewBox="0 0 48 48" fill="none" xmlns="http://www.w3.org/2000/svg">
<path d="M41 18H38V14C38 6.28031 31.7197 0 24 0C16.2802 0 10 6.28031 10 14V18H7.00003C6.44728 18 6 18.4473 6 19V44.0001C6 46.2061 7.79391 48 10 48H38.0001C40.2061 48 42 46.2061 42 44V19C42 18.4473 41.5527 18 41 18ZM26.9942 38.8897C27.0254 39.1718 26.9347 39.4551 26.7452 39.667C26.5557 39.8789 26.2842 40 26.0001 40H22C21.7159 40 21.4444 39.8789 21.2549 39.667C21.0654 39.4552 20.9746 39.1719 21.0059 38.8897L21.6368 33.2168C20.6123 32.4717 20.0001 31.293 20.0001 30C20.0001 27.794 21.794 26 24.0001 26C26.2062 26 28.0001 27.7939 28.0001 30C28.0001 31.293 27.3878 32.4717 26.3634 33.2168L26.9942 38.8897ZM32 18H16V14C16 9.58884 19.5889 6 24 6C28.4111 6 32 9.58884 32 14V18Z" fill="url(#paint0_linear_1611_406)"/>
<defs>
<linearGradient id="paint0_linear_1611_406" x1="28.1287" y1="3.64841" x2="1.72692" y2="37.0907" gradientUnits="userSpaceOnUse">
<stop stop-color="#DF18FF"/>
<stop offset="1" stop-color="#FA18FF" stop-opacity="0"/>
</linearGradient>
</defs>
</svg>
