<svg width="48" height="48" viewBox="0 0 48 48" fill="none" xmlns="http://www.w3.org/2000/svg">
<path d="M42.4917 30.3085C40.3303 28.1463 37.331 27.2303 33.4793 28.2621L19.7443 14.5191L19.9258 13.833C20.7169 10.8661 19.8621 7.67707 17.6958 5.5117C15.4901 3.30523 12.3544 2.49564 9.38879 3.30991C8.96588 3.42598 8.6367 3.75814 8.52468 4.18201C8.41265 4.60588 8.53551 5.05641 8.84549 5.36642L12.1526 8.67214C13.1195 9.64097 13.1101 11.1926 12.155 12.1497C11.2075 13.0994 9.61489 13.0979 8.67117 12.1521L5.36335 8.84548C5.05321 8.53531 4.60117 8.41365 4.17712 8.52629C3.75298 8.63884 3.42191 8.9687 3.3062 9.39183C2.50347 12.3236 3.29315 15.4774 5.50944 17.6927C7.67 19.8539 10.6655 20.7732 14.5195 19.7391L28.2556 33.4821C27.2306 37.3311 28.1148 40.3 30.3053 42.4895C32.5138 44.6987 35.651 45.5023 38.6101 44.6908C39.0331 44.5748 39.3624 44.2425 39.4745 43.8186C39.5866 43.3948 39.4638 42.9442 39.1536 42.6341L35.8472 39.3291C34.8804 38.3603 34.8898 36.8085 35.8448 35.8515C36.8042 34.8975 38.3933 34.9127 39.3287 35.8503L42.6368 39.156C42.9469 39.466 43.3989 39.5877 43.8229 39.475C44.247 39.3624 44.578 39.0327 44.6938 38.6097C45.4965 35.6784 44.707 32.5238 42.4917 30.3085Z" fill="url(#paint0_linear_1611_450)"/>
<path d="M16.1706 24.8682L4.44037 36.5999C2.52069 38.5196 2.52069 41.6413 4.44037 43.5609C6.36005 45.4806 9.48178 45.4806 11.4014 43.5609L23.1314 31.8295L16.1706 24.8682ZM10.2454 39.7421C9.76464 40.2228 8.98613 40.2228 8.50541 39.7421C8.02477 39.2615 8.02477 38.4828 8.50541 38.0022L15.9689 30.5373C16.4495 30.0567 17.2283 30.0567 17.7088 30.5373C18.1895 31.0179 18.1895 31.7966 17.7088 32.2772L10.2454 39.7421Z" fill="url(#paint1_linear_1611_450)"/>
<path d="M44.6394 5.48179L42.5181 3.36047C42.1188 2.96121 41.4992 2.88492 41.015 3.17524L34.4895 7.09016C33.8028 7.50205 33.6863 8.4493 34.2523 9.01542L34.7717 9.53469L26.4879 17.7846L29.969 21.2657L38.2529 13.0158L38.9845 13.7476C39.5506 14.3136 40.498 14.1971 40.9098 13.5105L44.8247 6.98491C45.1149 6.50066 45.0387 5.88105 44.6394 5.48179Z" fill="url(#paint2_linear_1611_450)"/>
<defs>
<linearGradient id="paint0_linear_1611_450" x1="28.8168" y1="6.19235" x2="7.99254" y2="41.3623" gradientUnits="userSpaceOnUse">
<stop stop-color="#DF18FF"/>
<stop offset="1" stop-color="#FA18FF" stop-opacity="0"/>
</linearGradient>
<linearGradient id="paint1_linear_1611_450" x1="15.3747" y1="26.3984" x2="5.39229" y2="43.2562" gradientUnits="userSpaceOnUse">
<stop stop-color="#DF18FF"/>
<stop offset="1" stop-color="#FA18FF" stop-opacity="0"/>
</linearGradient>
<linearGradient id="paint2_linear_1611_450" x1="37.8669" y1="4.38835" x2="28.8692" y2="19.7893" gradientUnits="userSpaceOnUse">
<stop stop-color="#DF18FF"/>
<stop offset="1" stop-color="#FA18FF" stop-opacity="0"/>
</linearGradient>
</defs>
</svg>
