<svg width="48" height="48" viewBox="0 0 48 48" fill="none" xmlns="http://www.w3.org/2000/svg">
<g clip-path="url(#clip0_1611_425)">
<path d="M47.8858 5.42819C47.6548 4.8672 47.1058 4.50121 46.4998 4.50121H43.4999V1.50129C43.4999 0.895311 43.1339 0.346326 42.5729 0.115332C42.0149 -0.118661 41.3699 0.0103352 40.9379 0.439323L36.4381 4.9392C36.1591 5.22119 36.0001 5.60218 36.0001 6.00117V9.88006L19.9385 25.9386C19.3535 26.5236 19.3535 27.4746 19.9385 28.0596C20.2325 28.3536 20.6165 28.5006 21.0005 28.5006C21.3845 28.5006 21.7684 28.3536 22.0624 28.0626L38.121 12.001H41.9999C42.3989 12.001 42.7799 11.842 43.0619 11.563L47.5618 7.06314C47.9877 6.63115 48.1167 5.98917 47.8858 5.42819Z" fill="url(#paint0_linear_1611_425)"/>
<path d="M32.0641 22.3658L26.9492 27.4986C26.6943 30.5765 24.1443 33.0005 21.0004 33.0005C17.6855 33.0005 15.0006 30.3156 15.0006 27.0006C15.0006 23.7937 17.5235 21.1958 20.6884 21.0308L25.7253 15.9759C24.2733 15.352 22.6804 15.001 21.0004 15.001C14.3826 15.001 9.00073 20.3828 9.00073 27.0006C9.00073 33.6185 14.3826 39.0003 21.0004 39.0003C27.6182 39.0003 33.0001 33.6185 33.0001 27.0006C33.0001 25.3567 32.6641 23.7937 32.0641 22.3658Z" fill="url(#paint1_linear_1611_425)"/>
<path d="M38.6909 15.7177L34.269 20.1546C35.337 22.2155 36 24.5225 36 27.0004C36 35.2712 29.2712 42 21.0004 42C12.7296 42 6.00081 35.2712 6.00081 27.0004C6.00081 18.7296 12.7296 12.0008 21.0004 12.0008C23.5113 12.0008 25.8423 12.6788 27.9242 13.7738L32.3401 9.34289C29.0672 7.23694 25.1793 6.00098 21.0004 6.00098C9.40272 6.00098 0.000976562 15.4027 0.000976562 27.0004C0.000976562 38.5981 9.40272 47.9998 21.0004 47.9998C32.5981 47.9998 41.9998 38.5981 41.9998 27.0004C41.9998 22.8425 40.7759 18.9786 38.6909 15.7177Z" fill="url(#paint2_linear_1611_425)"/>
</g>
<defs>
<linearGradient id="paint0_linear_1611_425" x1="37.0179" y1="2.16628" x2="22.8866" y2="26.0315" gradientUnits="userSpaceOnUse">
<stop stop-color="#DF18FF"/>
<stop offset="1" stop-color="#FA18FF" stop-opacity="0"/>
</linearGradient>
<linearGradient id="paint1_linear_1611_425" x1="23.7528" y1="16.8251" x2="11.8535" y2="36.9217" gradientUnits="userSpaceOnUse">
<stop stop-color="#DF18FF"/>
<stop offset="1" stop-color="#FA18FF" stop-opacity="0"/>
</linearGradient>
<linearGradient id="paint2_linear_1611_425" x1="25.817" y1="9.19324" x2="4.99338" y2="44.3622" gradientUnits="userSpaceOnUse">
<stop stop-color="#DF18FF"/>
<stop offset="1" stop-color="#FA18FF" stop-opacity="0"/>
</linearGradient>
<clipPath id="clip0_1611_425">
<rect width="48" height="48" fill="white"/>
</clipPath>
</defs>
</svg>
