<?xml version="1.0" encoding="UTF-8"?>
<!DOCTYPE svg PUBLIC "-//W3C//DTD SVG 1.1//EN" "http://www.w3.org/Graphics/SVG/1.1/DTD/svg11.dtd">
<!-- Creator: CorelDRAW X8 -->
<svg xmlns="http://www.w3.org/2000/svg" xml:space="preserve" width="5999mm" height="2500mm" version="1.1" style="shape-rendering:geometricPrecision; text-rendering:geometricPrecision; image-rendering:optimizeQuality; fill-rule:evenodd; clip-rule:evenodd"
viewBox="0 0 21000 29700"
 xmlns:xlink="http://www.w3.org/1999/xlink">
 <defs>
  <style type="text/css">
   <![CDATA[
    .fil0 {fill:white;fill-rule:nonzero}
    .fil1 {fill:url(#id0)}
    .fil2 {fill:url(#id1)}
   ]]>
  </style>
  <linearGradient id="id0" gradientUnits="userSpaceOnUse" x1="10734.5" y1="16823.9" x2="10734.5" y2="10357.1">
   <stop offset="0" style="stop-opacity:1; stop-color:#FD5533"/>
   <stop offset="0.631373" style="stop-opacity:1; stop-color:#F68728"/>
   <stop offset="1" style="stop-opacity:1; stop-color:#EFB91D"/>
  </linearGradient>
  <linearGradient id="id1" gradientUnits="userSpaceOnUse" x1="10445.8" y1="17074.1" x2="10445.8" y2="10645.8">
   <stop offset="0" style="stop-opacity:1; stop-color:#FD5533"/>
   <stop offset="1" style="stop-opacity:1; stop-color:#EFB91D"/>
  </linearGradient>
 </defs>
 <g id="Layer_x0020_1">
  <metadata id="CorelCorpID_0Corel-Layer"/>
  <g id="_1616849511200">
   <path class="fil0" d="M5480 20595m1509 -1313l409 1313 389 0 713 -2238 -498 0 -426 1387 -426 -1387 -320 0 -426 1387 -425 -1387 -499 0 710 2238 393 0 406 -1313zm1693 1313m514 -2238l-514 0 0 2238 514 0 0 -2238zm360 2238m1366 -2238l0 1314 -904 -1314 -462 0 0 2238 515 0 0 -1313 904 1313 462 0 0 -2238 -515 0zm773 2238m1102 -782l495 0c-13,36 -33,72 -59,105 -27,37 -60,70 -103,99 -39,30 -89,53 -145,73 -56,17 -119,27 -188,27 -83,0 -158,-17 -228,-50 -72,-33 -135,-76 -188,-132 -53,-56 -96,-125 -125,-205 -30,-76 -47,-161 -47,-254 0,-92 17,-178 47,-254 29,-79 72,-148 125,-204 53,-57 116,-99 188,-132 70,-33 145,-50 228,-50 66,0 125,10 178,26 53,20 99,43 139,73 43,33 76,66 102,106 23,36 46,76 59,115l532 -36c-27,-99 -70,-198 -126,-294 -59,-96 -132,-178 -221,-251 -86,-72 -185,-128 -297,-171 -112,-43 -234,-63 -366,-63 -152,0 -294,26 -429,86 -135,59 -251,138 -350,241 -99,102 -178,224 -238,363 -56,138 -85,287 -85,445 0,162 29,310 85,449 60,135 139,258 238,360 99,102 215,181 350,241 135,59 277,86 429,86 99,0 188,-10 264,-33 79,-27 145,-53 201,-80 63,-33 122,-72 172,-118 56,128 181,214 320,214l125 0 0 -1208 -1082 0 0 426zm1304 782m99 -1294c56,83 122,152 204,202 83,49 172,89 264,118 96,30 185,57 264,83 83,26 152,53 205,86 56,29 82,72 82,128 0,63 -26,116 -76,162 -52,46 -125,69 -224,69 -215,0 -320,-99 -320,-300l-498 36c0,106 19,205 56,291 36,89 89,168 158,231 69,66 155,115 257,152 103,36 218,53 347,53 132,0 251,-17 353,-53 106,-37 192,-83 264,-142 69,-60 126,-129 162,-208 36,-79 53,-162 53,-254 0,-136 -27,-244 -80,-330 -56,-86 -122,-152 -204,-205 -83,-53 -172,-92 -264,-122 -96,-26 -185,-53 -268,-79 -79,-27 -148,-53 -201,-79 -56,-30 -82,-70 -82,-126 0,-53 23,-102 72,-148 50,-43 112,-63 195,-63 89,0 158,23 208,73 49,49 76,118 76,211l495 -36c0,-103 -17,-195 -53,-284 -40,-86 -89,-162 -158,-225 -66,-62 -149,-112 -245,-148 -95,-37 -204,-53 -323,-53 -125,0 -238,16 -337,53 -99,36 -181,82 -250,138 -70,60 -123,126 -159,205 -36,76 -56,158 -56,241 0,135 30,241 83,323z"/>
   <path class="fil1" d="M11363 16133c69,0 138,0 207,0 33,0 61,14 81,40 20,25 26,56 18,88 -17,67 -35,135 -52,203 -12,45 -52,76 -99,76 -69,0 -138,0 -207,0 -32,0 -60,-14 -80,-39 -20,-26 -26,-57 -18,-88 17,-68 34,-135 52,-203 12,-46 51,-77 98,-77zm0 102c-17,68 -34,136 -52,203 69,0 138,0 207,0 18,-67 35,-135 52,-203 -69,0 -138,0 -207,0zm-234 1013l-40 155 158 0 40 -155 -158 0zm-1258 0l-158 0 40 155 158 0 -40 -155zm3687 -6079l-100 392 400 0 101 -392 -401 0zm-234 1013c-30,114 -59,229 -89,344 118,0 235,0 352,0 30,-115 60,-230 89,-344 -117,0 -235,0 -352,0zm-235 1012c-25,99 -51,198 -76,298 101,0 202,0 304,0 25,-100 51,-199 76,-298 -101,0 -202,0 -304,0zm-234 1013c-22,83 -43,166 -64,250 85,0 170,0 255,0 21,-84 43,-167 64,-250 -85,0 -170,0 -255,0zm-235 1012c-17,68 -34,135 -52,203 69,0 138,0 207,0 18,-68 35,-135 52,-203 -69,0 -138,0 -207,0zm-234 1013l-40 155 158 0 40 -155 -158 0zm2276 -6051l-101 392 401 0 100 -392 -400 0zm-235 1013c-29,115 -59,230 -88,344 117,0 235,0 352,0 29,-114 59,-229 88,-344 -117,0 -234,0 -352,0zm-234 1012c-26,99 -51,199 -77,298 102,0 203,0 304,0 26,-99 51,-199 77,-298 -102,0 -203,0 -304,0zm-235 1013c-21,83 -43,167 -64,250 85,0 170,0 255,0 22,-83 43,-167 65,-250 -85,0 -171,0 -256,0zm-234 1012c-17,68 -35,136 -52,203 69,0 138,0 207,0 17,-67 34,-135 52,-203 -69,0 -138,0 -207,0zm-235 1013l-40 156 159 0 40 -156 -159 0zm2266 -6054l-100 392 401 0 100 -392 -401 0zm-234 1013c-29,115 -59,230 -89,344 118,0 235,0 353,0 29,-114 59,-229 88,-344 -117,0 -235,0 -352,0zm-234 1012c-26,99 -51,199 -77,298 101,0 203,0 304,0 25,-99 51,-199 76,-298 -101,0 -202,0 -303,0zm-235 1013c-21,83 -43,167 -64,250 85,0 170,0 255,0 22,-83 43,-167 64,-250 -85,0 -170,0 -255,0zm-234 1012c-18,68 -35,136 -52,203 69,0 137,0 206,0 18,-67 35,-135 53,-203 -69,0 -138,0 -207,0zm-235 1013l-40 156 159 0 40 -156 -159 0zm-4946 1982c-69,0 -138,0 -207,0 17,68 34,136 52,203 69,0 138,0 207,0 -18,-67 -35,-135 -52,-203zm-2195 -5066l-401 0 101 392 400 0 -100 -392zm234 1013c-117,0 -235,0 -352,0 30,114 59,229 89,344 117,0 234,0 352,0 -30,-115 -59,-230 -89,-344zm235 1012c-102,0 -203,0 -304,0 25,99 51,198 76,298 102,0 203,0 304,0 -25,-100 -51,-199 -76,-298zm234 1013c-85,0 -170,0 -255,0 21,83 43,166 64,250 85,0 170,0 255,0 -21,-84 -42,-167 -64,-250zm235 1012c-69,0 -138,0 -207,0 17,68 34,135 52,203 69,0 138,0 207,0 -18,-68 -35,-135 -52,-203zm234 1013l-158 0 40 155 158 0 -40 -155zm-2276 -6051l-400 0 100 392 401 0 -101 -392zm235 1013c-118,0 -235,0 -352,0 29,115 59,230 88,344 117,0 235,0 352,0 -29,-114 -59,-229 -88,-344zm234 1012c-101,0 -202,0 -304,0 26,99 51,199 77,298 101,0 202,0 304,0 -26,-99 -51,-199 -77,-298zm235 1013c-85,0 -171,0 -256,0 22,83 43,167 65,250 85,0 170,0 255,0 -21,-83 -43,-167 -64,-250zm234 1012c-69,0 -138,0 -207,0 18,68 35,136 52,203 69,0 138,0 207,0 -17,-67 -34,-135 -52,-203zm235 1013l-159 0 40 156 159 0 -40 -156zm-2266 -6054l-401 0 100 392 401 0 -100 -392zm234 1013c-117,0 -235,0 -352,0 29,115 59,230 88,344 118,0 235,0 353,0 -30,-114 -60,-229 -89,-344zm234 1012c-101,0 -202,0 -303,0 25,99 51,199 76,298 101,0 203,0 304,0 -26,-99 -51,-199 -77,-298zm235 1013c-85,0 -170,0 -255,0 21,83 42,167 64,250 85,0 170,0 255,0 -21,-83 -43,-167 -64,-250zm234 1012c-69,0 -138,0 -207,0 18,68 35,136 53,203 69,0 137,0 206,0 -17,-67 -34,-135 -52,-203zm235 1013l-159 0 40 156 159 0 -40 -156zm4712 2893l158 0c33,0 61,14 81,39 20,26 26,57 18,88l-40 156c-12,45 -51,76 -99,76l-158 0c-33,0 -61,-13 -80,-39 -20,-26 -27,-56 -19,-88l40 -156c12,-45 52,-76 99,-76zm-1159 76l40 156c8,32 1,62 -19,88 -19,26 -47,39 -80,39l-158 0c-48,0 -87,-31 -99,-76l-40 -156c-8,-31 -2,-62 18,-88 20,-25 48,-39 81,-39l158 0c47,0 87,31 99,76zm3588 -6155l401 0c32,0 60,14 80,40 20,25 27,56 19,87l-101 392c-12,46 -52,77 -99,77l-400 0c-33,0 -61,-14 -81,-40 -20,-25 -26,-56 -18,-87l101 -392c11,-46 51,-77 98,-77zm-234 1013c117,0 235,0 352,0 33,0 61,13 80,39 20,26 27,56 19,88 -30,115 -59,230 -89,345 -12,45 -51,76 -99,76 -117,0 -234,0 -352,0 -32,0 -60,-14 -80,-39 -20,-26 -27,-57 -18,-88 29,-115 59,-230 88,-345 12,-45 52,-76 99,-76zm-235 1012c102,0 203,0 304,0 33,0 61,14 81,40 20,25 26,56 18,87 -26,100 -51,199 -77,298 -11,45 -51,76 -98,76 -102,0 -203,0 -304,0 -33,0 -61,-13 -81,-39 -20,-26 -26,-56 -18,-88 26,-99 51,-198 77,-297 11,-46 51,-77 98,-77zm-234 1013c85,0 170,0 255,0 33,0 61,13 81,39 20,26 26,56 18,88 -22,83 -43,167 -64,250 -12,46 -52,77 -99,77 -85,0 -170,0 -255,0 -33,0 -61,-14 -81,-40 -20,-25 -26,-56 -18,-87 21,-84 43,-167 64,-251 12,-45 52,-76 99,-76zm-235 1012c69,0 138,0 207,0 33,0 61,14 81,40 20,25 26,56 18,87 -17,68 -35,136 -52,203 -12,46 -52,77 -99,77 -69,0 -138,0 -207,0 -32,0 -60,-14 -80,-39 -20,-26 -26,-57 -18,-88 17,-68 34,-136 52,-203 11,-46 51,-77 98,-77zm-234 1013l158 0c33,0 61,14 81,39 20,26 26,56 18,88l-40 156c-12,45 -51,76 -99,76l-158 0c-33,0 -61,-13 -81,-39 -19,-26 -26,-56 -18,-88l40 -156c12,-45 52,-76 99,-76zm2276 -6051l400 0c33,0 61,14 81,40 20,26 26,56 18,88l-101 391c-11,46 -51,77 -98,77l-401 0c-33,0 -61,-14 -80,-39 -20,-26 -27,-57 -19,-88l101 -392c12,-46 52,-77 99,-77zm216 1140c-29,115 -59,230 -88,345 -12,45 -52,76 -99,76 -117,0 -235,0 -352,0 -33,0 -61,-13 -81,-39 -20,-26 -26,-56 -18,-88 30,-115 59,-230 89,-345 11,-45 51,-76 98,-76 118,0 235,0 352,0 33,0 61,14 81,39 20,26 26,57 18,88zm-685 885c101,0 202,0 304,0 32,0 60,14 80,40 20,26 26,56 18,88 -25,99 -51,198 -76,297 -12,46 -52,77 -99,77 -101,0 -202,0 -304,0 -32,0 -60,-14 -80,-40 -20,-26 -26,-56 -18,-88 25,-99 51,-198 76,-297 12,-46 52,-77 99,-77zm-235 1013c85,0 171,0 256,0 32,0 60,14 80,39 20,26 26,57 18,88 -21,84 -43,167 -64,250 -12,46 -51,77 -99,77 -85,0 -170,0 -255,0 -32,0 -60,-14 -80,-40 -20,-25 -27,-56 -19,-87 22,-84 43,-167 65,-251 11,-45 51,-76 98,-76zm-234 1012c69,0 138,0 207,0 32,0 60,14 80,40 20,26 27,56 18,88 -17,67 -34,135 -52,203 -11,45 -51,76 -98,76 -69,0 -138,0 -207,0 -33,0 -61,-14 -81,-39 -20,-26 -26,-56 -18,-88 17,-68 35,-135 52,-203 12,-46 52,-77 99,-77zm-235 1013l159 0c32,0 60,14 80,39 20,26 27,57 19,88l-40 156c-12,46 -52,76 -99,76l-159 0c-32,0 -60,-13 -80,-39 -20,-26 -26,-56 -18,-88l40 -156c12,-45 51,-76 98,-76zm2266 -6054l401 0c33,0 61,14 81,40 20,26 26,56 18,88l-101 392c-12,45 -51,76 -98,76l-401 0c-33,0 -61,-14 -81,-39 -20,-26 -26,-57 -18,-88l101 -392c12,-46 51,-77 98,-77zm-234 1013c117,0 235,0 352,0 33,0 61,14 81,39 20,26 26,57 18,88 -30,115 -59,230 -89,345 -11,45 -51,76 -98,76 -118,0 -235,0 -353,0 -32,0 -60,-13 -80,-39 -20,-26 -26,-56 -18,-88 29,-115 59,-230 88,-345 12,-45 52,-76 99,-76zm-234 1013c101,0 202,0 303,0 33,0 61,13 81,39 20,26 26,56 18,88 -25,99 -51,198 -76,297 -12,46 -52,77 -99,77 -101,0 -203,0 -304,0 -32,0 -60,-14 -80,-40 -20,-26 -27,-56 -18,-88 25,-99 50,-198 76,-297 12,-46 51,-76 99,-76zm-235 1012c85,0 170,0 255,0 33,0 61,14 81,39 20,26 26,57 18,88 -21,84 -43,167 -64,250 -12,46 -52,77 -99,77 -85,0 -170,0 -255,0 -33,0 -61,-14 -81,-40 -20,-25 -26,-56 -18,-87 22,-84 43,-167 64,-250 12,-46 52,-77 99,-77zm-234 1013c69,0 138,0 207,0 32,0 60,13 80,39 20,26 26,56 18,88 -17,67 -35,135 -52,203 -12,45 -51,76 -99,76 -69,0 -137,0 -206,0 -33,0 -61,-14 -81,-39 -20,-26 -26,-56 -18,-88 17,-68 35,-135 52,-203 12,-46 52,-76 99,-76zm-235 1012l159 0c32,0 60,14 80,39 20,26 26,57 18,88l-40 156c-11,46 -51,77 -98,77l-159 0c-32,0 -60,-14 -80,-40 -20,-26 -26,-56 -18,-88l40 -155c11,-46 51,-77 98,-77zm-4848 2059c18,68 35,135 52,203 8,31 2,62 -18,88 -20,25 -48,39 -80,39 -69,0 -138,0 -207,0 -47,0 -87,-31 -99,-76 -17,-68 -35,-136 -52,-203 -8,-32 -2,-63 18,-88 20,-26 48,-40 81,-40 69,0 138,0 207,0 47,0 86,31 98,77zm-2195 -5066l101 392c8,31 2,62 -18,87 -20,26 -48,40 -81,40l-400 0c-47,0 -87,-31 -99,-77l-101 -392c-8,-31 -1,-62 19,-87 20,-26 48,-40 80,-40l401 0c47,0 87,31 98,77zm235 1012c29,115 59,230 88,345 9,31 2,62 -18,88 -20,25 -48,39 -80,39 -118,0 -235,0 -352,0 -48,0 -87,-31 -99,-76 -30,-115 -59,-230 -89,-345 -8,-32 -1,-62 19,-88 19,-26 47,-39 80,-39 117,0 235,0 352,0 47,0 87,31 99,76zm234 1013c26,99 51,198 77,297 8,32 2,62 -18,88 -20,26 -48,39 -81,39 -101,0 -202,0 -304,0 -47,0 -87,-31 -98,-76 -26,-99 -51,-198 -77,-298 -8,-31 -2,-62 18,-87 20,-26 48,-40 81,-40 101,0 202,0 304,0 47,0 87,31 98,77zm-154 1313c-21,-83 -42,-167 -64,-250 -8,-32 -2,-62 18,-88 20,-26 48,-39 81,-39 85,0 170,0 255,0 47,0 87,31 99,76 21,84 43,167 64,250 8,32 2,63 -18,88 -20,26 -48,40 -81,40 -85,0 -170,0 -255,0 -47,0 -87,-31 -99,-77zm623 712c18,67 35,135 52,203 8,31 2,62 -18,88 -20,25 -48,39 -80,39 -69,0 -138,0 -207,0 -47,0 -87,-31 -99,-77 -17,-67 -35,-135 -52,-203 -8,-31 -2,-62 18,-87 20,-26 48,-40 81,-40 69,0 138,0 207,0 47,0 87,31 98,77zm235 1012l40 156c8,32 1,62 -18,88 -20,26 -48,39 -81,39l-158 0c-48,0 -87,-31 -99,-76l-40 -156c-8,-32 -2,-62 18,-88 20,-25 48,-39 81,-39l158 0c47,0 87,31 99,76zm-2276 -6050l101 392c8,31 1,62 -19,88 -19,25 -47,39 -80,39l-401 0c-47,0 -87,-31 -98,-77l-101 -391c-8,-32 -2,-62 18,-88 20,-26 48,-40 81,-40l400 0c47,0 87,31 99,77zm234 1012c30,115 59,230 89,345 8,32 2,62 -18,88 -20,26 -48,39 -81,39 -117,0 -235,0 -352,0 -47,0 -87,-31 -99,-76 -29,-115 -59,-230 -88,-345 -8,-31 -2,-62 18,-88 20,-25 48,-39 81,-39 117,0 234,0 352,0 47,0 87,31 98,76zm235 1013c25,99 51,198 76,297 8,32 2,62 -18,88 -20,26 -48,40 -80,40 -102,0 -203,0 -304,0 -47,0 -87,-31 -99,-77 -25,-99 -51,-198 -76,-297 -8,-32 -2,-62 18,-88 20,-26 48,-40 80,-40 102,0 203,0 304,0 47,0 87,31 99,77zm-154 1313c-21,-83 -43,-166 -64,-250 -8,-31 -2,-62 18,-88 20,-25 48,-39 80,-39 85,0 171,0 256,0 47,0 87,31 98,76 22,84 43,167 65,251 8,31 1,62 -19,87 -20,26 -48,40 -80,40 -85,0 -170,0 -255,0 -48,0 -87,-31 -99,-77zm623 712c17,68 35,135 52,203 8,32 2,62 -18,88 -20,25 -48,39 -81,39 -69,0 -138,0 -207,0 -47,0 -87,-31 -98,-76 -18,-68 -35,-136 -52,-203 -8,-32 -2,-62 18,-88 20,-26 48,-40 80,-40 69,0 138,0 207,0 47,0 87,31 99,77zm234 1012l40 156c8,32 2,62 -18,88 -20,26 -48,39 -80,39l-159 0c-47,0 -87,-30 -98,-76l-41 -156c-8,-31 -1,-62 19,-88 20,-25 48,-39 80,-39l159 0c47,0 86,31 98,76zm-2266 -6053l101 392c8,31 2,62 -18,88 -20,25 -48,39 -81,39l-401 0c-47,0 -86,-31 -98,-76l-101 -392c-8,-32 -2,-62 18,-88 20,-26 48,-40 81,-40l401 0c47,0 86,31 98,77zm-226 1408c-30,-115 -59,-230 -89,-345 -8,-31 -2,-62 18,-88 20,-25 48,-39 81,-39 117,0 235,0 352,0 47,0 87,31 99,76 29,115 59,230 88,345 8,32 2,62 -18,88 -20,26 -48,39 -80,39 -118,0 -235,0 -353,0 -47,0 -87,-31 -98,-76zm695 617c26,99 51,198 76,297 9,32 2,62 -18,88 -20,26 -48,40 -80,40 -101,0 -203,0 -304,0 -47,0 -87,-31 -99,-77 -25,-99 -51,-198 -76,-297 -8,-32 -2,-62 18,-88 20,-26 48,-39 81,-39 101,0 202,0 303,0 48,0 87,30 99,76zm235 1013c21,83 42,166 64,250 8,31 2,62 -18,87 -20,26 -48,40 -81,40 -85,0 -170,0 -255,0 -47,0 -87,-31 -99,-77 -21,-83 -43,-166 -64,-250 -8,-31 -2,-62 18,-88 20,-25 48,-39 81,-39 85,0 170,0 255,0 47,0 87,31 99,77zm234 1012c17,68 35,135 52,203 8,32 2,62 -18,88 -20,25 -48,39 -81,39 -69,0 -137,0 -206,0 -48,0 -87,-31 -99,-76 -17,-68 -35,-136 -52,-203 -8,-32 -2,-62 18,-88 20,-26 48,-39 80,-39 69,0 138,0 207,0 47,0 87,30 99,76zm234 1013l40 155c8,32 2,62 -18,88 -20,26 -48,40 -80,40l-159 0c-47,0 -87,-31 -98,-77l-40 -156c-8,-31 -2,-62 18,-88 20,-25 48,-39 80,-39l159 0c47,0 87,31 98,77z"/>
   <path class="fil2" d="M10842 12034l155 603c6,22 1,44 -13,63 -14,18 -34,28 -57,28l-854 0c-23,0 -43,-10 -57,-28 -14,-19 -19,-41 -13,-63l155 -603c8,-33 37,-55 70,-55l544 0c33,0 62,22 70,55zm-344 1609c13,0 23,7 27,18l-27 -102 42 160c5,11 15,19 28,21l620 0c24,0 44,-10 58,-29 14,-18 19,-40 13,-62l-155 -603c-9,-33 -37,-55 -71,-55l-1066 0c-34,0 -62,22 -71,55l-155 603c-6,22 -1,44 13,62 14,19 34,29 58,29l617 0c12,-1 23,-9 28,-20l15 -59c4,-11 14,-18 26,-18zm631 1631c-12,0 -22,-10 -23,-22l47 -315c-1,-17 -13,-30 -30,-33l-192 0c-23,0 -43,10 -58,29 -14,18 -18,40 -12,62l158 604c9,32 37,54 70,54l671 0c34,0 62,-22 70,-55l155 -603c6,-22 2,-44 -13,-63 -14,-18 -34,-28 -57,-28l-649 0c-11,2 -21,9 -26,19l-88 335c-3,9 -12,16 -23,16zm-1241 -22c-1,12 -11,22 -24,22 -10,0 -19,-7 -22,-17l101 382 -190 -716c-5,-10 -14,-17 -26,-19l-642 0c-23,0 -43,10 -57,28 -15,19 -19,41 -13,63l155 603c8,33 36,55 70,55l671 0c33,0 61,-22 70,-54l158 -604c6,-22 2,-44 -12,-62 -15,-19 -35,-29 -58,-29l-199 0c-16,3 -29,16 -29,33l-5 -33 109 733 -57 -385zm2188 -3273l617 0c24,0 44,10 58,28 14,19 19,40 13,63l-155 603c-9,33 -37,55 -71,55l-617 0c-24,0 -44,-10 -58,-28 -14,-19 -19,-41 -13,-63l155 -603c8,-33 37,-55 71,-55zm-3081 55l155 603c6,22 1,44 -13,63 -14,18 -34,28 -58,28l-617 0c-34,0 -62,-22 -71,-55l-155 -603c-6,-23 -1,-44 13,-63 14,-18 34,-28 58,-28l617 0c34,0 63,22 71,55zm2428 2201l2 -10 4 -14 0 0 45 -175c8,-33 37,-55 70,-55l618 0c23,0 43,10 57,28 15,19 19,41 13,63l-154 603c-9,33 -37,55 -71,55l-653 0c-26,-2 -48,-24 -48,-50 0,-4 1,-7 1,-10l116 -435 0 0zm-279 495l-306 0c-33,0 -62,-22 -70,-55l-155 -603c-6,-22 -1,-44 13,-63 14,-18 34,-28 57,-28l560 0c26,3 45,24 45,50l0 1 -99 661c-5,20 -24,36 -45,37zm658 -1739l617 0c24,0 44,10 58,28 14,18 19,40 13,63l-155 603c-8,33 -37,55 -71,55l-617 0c-24,0 -44,-10 -58,-29 -14,-18 -19,-40 -13,-62l155 -603c9,-33 37,-55 71,-55zm-2232 1244l1 -1 131 496 -15 -58c0,2 0,5 0,8 0,26 -21,48 -47,50l-654 0c-34,0 -62,-22 -71,-55l-155 -603c-5,-22 -1,-44 13,-63 15,-18 35,-28 58,-28l618 0c33,0 62,22 70,55l51 199zm180 -254l560 0c23,0 43,10 57,28 14,19 19,41 13,63l-155 603c-8,33 -37,55 -70,55l-305 0c-22,-1 -41,-17 -46,-39l-106 -710 8 53c0,-1 0,-2 0,-3 0,-26 19,-47 44,-50zm-481 -935l155 603c6,22 1,44 -13,62 -14,19 -34,29 -58,29l-617 0c-34,0 -63,-22 -71,-55l-155 -603c-6,-23 -1,-45 13,-63 14,-18 34,-28 58,-28l617 0c34,0 62,22 71,55z"/>
  </g>
 </g>
</svg>
