<svg viewBox="0 0 48 48" fill="none" xmlns="http://www.w3.org/2000/svg">
<g clip-path="url(#clip0)">
<path d="M24.06 15.2948L13.0344 12.3414C12.5852 12.2193 12.1294 12.4877 12.0097 12.9328C11.8902 13.3786 12.1552 13.8377 12.6011 13.9573L23.6267 16.9107C23.6994 16.9299 23.7722 16.9391 23.8433 16.9391C24.213 16.9391 24.5509 16.6923 24.6504 16.3193C24.7717 15.8728 24.5066 15.4135 24.06 15.2948Z" fill="white" fill-opacity="0.4"/>
<path d="M26.5265 16.5244C26.5575 16.4808 26.5835 16.4332 26.6228 16.3964C26.5843 16.434 26.5583 16.4808 26.5265 16.5244Z" fill="white" fill-opacity="0.4"/>
<path d="M26.4378 16.6556C26.4186 16.6983 26.4136 16.746 26.4019 16.7928C26.4136 16.7468 26.4186 16.6992 26.4378 16.6556Z" fill="white" fill-opacity="0.4"/>
<path d="M26.8996 16.2233C26.8394 16.2458 26.79 16.2835 26.7381 16.3187C26.79 16.2843 26.8394 16.2466 26.8996 16.2233Z" fill="white" fill-opacity="0.4"/>
<path d="M26.4052 41.0137C26.2563 40.5763 26.4897 40.1012 26.9271 39.9523L28.0337 39.5751V17.595L27.4717 17.7899C27.0334 17.9421 26.5583 17.7105 26.4077 17.2739C26.3734 17.1744 26.3634 17.0731 26.3668 16.9736C26.3668 16.9828 26.3617 16.9912 26.3617 17.0004V39.668L8.92423 35.2182V12.4871L8.51603 12.6209L7.25142 13.7585V35.8674C7.25142 36.2497 7.51072 36.5825 7.88126 36.6779L26.9917 41.5543C27.0603 41.5719 27.1296 41.5802 27.1983 41.5802C26.8485 41.5808 26.5232 41.3616 26.4052 41.0137Z" fill="white" fill-opacity="0.4"/>
<path d="M27.1965 41.5808C27.2893 41.5808 27.3805 41.5658 27.4675 41.5356H27.4667C27.3772 41.5666 27.286 41.5808 27.1965 41.5808Z" fill="white" fill-opacity="0.4"/>
<path d="M7.61773 11.2074C7.67464 11.1681 7.73144 11.1279 7.79678 11.1036C7.72979 11.1278 7.67464 11.1672 7.61773 11.2074Z" fill="white" fill-opacity="0.4"/>
<path d="M42.6844 11.4658C42.6743 11.4482 42.6568 11.4382 42.6459 11.4222C42.7279 11.5444 42.7856 11.684 42.794 11.8388C42.8132 12.2101 42.5841 12.5505 42.2328 12.6718L41.577 12.8993L45.9372 20.5141L33.9815 24.6552L30.64 19.8366C30.3765 19.4586 29.8546 19.3624 29.4757 19.6267C29.096 19.8893 29.0023 20.4113 29.265 20.791L32.9678 26.1307C33.1276 26.3598 33.3868 26.4903 33.6553 26.4903C33.7465 26.4903 33.8393 26.4761 33.9288 26.4443L40.6595 24.1124V22.9372C40.6595 22.4747 41.0342 22.1008 41.4959 22.1008C41.9576 22.1008 42.3324 22.4746 42.3324 22.9372V23.5328L47.4379 21.7646C47.6729 21.6826 47.8603 21.5011 47.9472 21.267C48.0342 21.0345 48.0133 20.7743 47.8895 20.5577L42.6844 11.4658Z" fill="white" fill-opacity="0.4"/>
<path d="M42.4334 11.1998C42.4618 11.2199 42.4853 11.2442 42.5104 11.2667C42.4845 11.2441 42.461 11.219 42.4334 11.1998Z" fill="white" fill-opacity="0.4"/>
<path d="M42.165 11.0735C42.1901 11.0802 42.2118 11.0944 42.2361 11.1028C42.211 11.0944 42.1901 11.0802 42.165 11.0735Z" fill="white" fill-opacity="0.4"/>
<path d="M40.6602 35.2692L28.0329 39.5751V40.7436C28.0329 41.0021 27.9133 41.2462 27.7091 41.4044C27.6356 41.4613 27.5536 41.5047 27.4674 41.5349L41.7659 36.6585C42.1047 36.5431 42.3322 36.2244 42.3322 35.8673V23.5326L40.6594 24.1122V35.2691H40.6602V35.2692Z" fill="white" fill-opacity="0.4"/>
<path d="M28.0329 40.7444V39.5759L26.9263 39.9531C26.4889 40.102 26.2555 40.5771 26.4044 41.0145C26.5231 41.3625 26.8477 41.5816 27.1957 41.5816C27.2852 41.5816 27.3764 41.5674 27.4659 41.5364H27.4667C27.5529 41.5072 27.6349 41.4637 27.7084 41.406C27.9133 41.2463 28.0329 41.0021 28.0329 40.7444Z" fill="white" fill-opacity="0.4"/>
<path d="M41.4967 22.1007C41.035 22.1007 40.6602 22.4745 40.6602 22.9372V24.1124L42.333 23.5327V22.9372C42.3331 22.4746 41.9584 22.1007 41.4967 22.1007Z" fill="white" fill-opacity="0.4"/>
<path d="M42.5104 11.2676C42.5606 11.3128 42.6066 11.3638 42.6459 11.4223C42.6066 11.3638 42.5622 11.3136 42.5104 11.2676Z" fill="white" fill-opacity="0.4"/>
<path d="M7.61773 11.2073C7.58841 11.2273 7.55332 11.2365 7.52739 11.26L0.277412 17.7814C-0.0211975 18.0491 -0.0872579 18.4932 0.121007 18.8361C0.276589 19.0929 0.550915 19.2393 0.836971 19.2393C0.934003 19.2393 1.03268 19.2217 1.12889 19.1874L5.56276 17.5363C5.99606 17.3749 6.21596 16.8939 6.05461 16.4607C5.89317 16.0266 5.4114 15.8092 4.97902 15.9681L4.66539 16.0851L7.25162 13.759V11.8813C7.24967 11.5971 7.40113 11.3578 7.61773 11.2073Z" fill="white" fill-opacity="0.4"/>
<path d="M42.2361 11.1028C42.3055 11.1271 42.3724 11.1571 42.4334 11.1998C42.3732 11.1579 42.3063 11.1278 42.2361 11.1028Z" fill="white" fill-opacity="0.4"/>
<path d="M8.92258 11.8814V12.4878L22.2266 8.12174L38.9548 12.0378L26.9222 16.2108C26.9139 16.2132 26.908 16.2208 26.8997 16.2241C26.9925 16.189 27.0912 16.1648 27.1958 16.1648C27.6575 16.1648 28.0323 16.5386 28.0323 17.0012V17.5959L41.5763 12.8994L41.2317 12.2981C41.0025 11.8974 41.1413 11.3856 41.542 11.1564C41.7386 11.0452 41.961 11.0235 42.1644 11.0744C42.1585 11.0728 42.1543 11.0694 42.1485 11.0677L22.3787 6.43978C22.229 6.40551 22.0726 6.4122 21.9271 6.45902L7.82518 11.0869C7.81427 11.0902 7.80676 11.0994 7.79585 11.1036C7.88702 11.0694 7.98323 11.0451 8.08613 11.0451C8.54865 11.0451 8.92258 11.4189 8.92258 11.8814Z" fill="white" fill-opacity="0.4"/>
<path d="M26.6228 16.3964C26.6562 16.3646 26.6997 16.3445 26.7382 16.3186C26.6996 16.3445 26.6562 16.3646 26.6228 16.3964Z" fill="white" fill-opacity="0.4"/>
<path d="M26.3651 16.9735C26.3667 16.9099 26.386 16.8522 26.4019 16.7928C26.386 16.8531 26.3676 16.9108 26.3651 16.9735Z" fill="white" fill-opacity="0.4"/>
<path d="M26.5265 16.5244C26.4956 16.5679 26.4597 16.6072 26.4378 16.6557C26.4605 16.6072 26.4964 16.5679 26.5265 16.5244Z" fill="white" fill-opacity="0.4"/>
<path d="M8.92258 12.487V11.8806C8.92258 11.4181 8.54783 11.0442 8.08612 11.0442C7.98323 11.0442 7.88702 11.0685 7.79585 11.1027C7.73061 11.127 7.67371 11.1672 7.61681 11.2065C7.40021 11.3578 7.24967 11.5962 7.24967 11.8806V13.7584L8.51428 12.6209L8.92258 12.487Z" fill="white" fill-opacity="0.4"/>
<path d="M27.1965 16.1639C27.0911 16.1639 26.9925 16.1882 26.9004 16.2233C26.8402 16.2468 26.79 16.2835 26.7389 16.3187C26.7004 16.3446 26.6578 16.3647 26.6235 16.3965C26.5842 16.4342 26.5582 16.481 26.5273 16.5245C26.4963 16.568 26.4612 16.6073 26.4386 16.6558C26.4193 16.6993 26.4143 16.747 26.4025 16.793C26.3867 16.8523 26.3683 16.9101 26.3657 16.9736C26.3623 17.0731 26.3716 17.1744 26.4067 17.2739C26.558 17.7105 27.0331 17.9422 27.4706 17.7899L28.0327 17.595V17.0004C28.0329 16.5378 27.6582 16.1639 27.1965 16.1639Z" fill="white" fill-opacity="0.4"/>
<path d="M41.5426 11.1555C41.1419 11.3846 41.0031 11.8966 41.2323 12.2972L41.5769 12.8986L42.2327 12.6711C42.584 12.5489 42.8131 12.2094 42.7939 11.838C42.7855 11.6832 42.7278 11.5444 42.6458 11.4215C42.6065 11.3629 42.5613 11.3119 42.5103 11.2667C42.4852 11.2433 42.4609 11.2191 42.4333 11.1998C42.3723 11.1581 42.3053 11.1271 42.236 11.1028C42.2117 11.0945 42.1908 11.0803 42.1649 11.0735C41.9616 11.0216 41.7392 11.0433 41.5426 11.1555Z" fill="white" fill-opacity="0.4"/>
</g>
<defs>
<clipPath id="clip0">
<rect width="48" height="48" fill="white"/>
</clipPath>
</defs>
</svg>
