<svg width="64" height="62" viewBox="0 0 64 62" fill="none" xmlns="http://www.w3.org/2000/svg">
<path d="M0 42.9166L32 23.0458L64 42.9166L32 62L0 42.9166Z" fill="white"/>
<path fill-rule="evenodd" clip-rule="evenodd" d="M0 42.9166L32 62L64 42.9166L32 23.0458L0 42.9166ZM7.69373 42.8475L32 57.3427L56.3063 42.8475L32 27.7542L7.69373 42.8475Z" fill="#0E0E0E"/>
<path d="M0 31.6826L32 11.8118L64 31.6826L32 50.766L0 31.6826Z" fill="white"/>
<path fill-rule="evenodd" clip-rule="evenodd" d="M0 31.6826L32 50.766L64 31.6826L32 11.8118L0 31.6826ZM7.69373 31.6135L32 46.1087L56.3063 31.6135L32 16.5202L7.69373 31.6135Z" fill="#0E0E0E"/>
<path d="M0 19.8708L32 0L64 19.8708L32 38.9542L0 19.8708Z" fill="white"/>
<path fill-rule="evenodd" clip-rule="evenodd" d="M0 19.8708L32 38.9542L64 19.8708L32 0L0 19.8708ZM7.69373 19.8018L32 34.2969L56.3063 19.8018L32 4.70845L7.69373 19.8018Z" fill="#FFDA00"/>
</svg>
