<svg width="64" height="64" viewBox="0 0 64 64" fill="none" xmlns="http://www.w3.org/2000/svg">
<path fill-rule="evenodd" clip-rule="evenodd" d="M4 60V0H0V64H64V60H4Z" fill="#0E0E0E"/>
<path fill-rule="evenodd" clip-rule="evenodd" d="M20.3187 34.734C12.9898 24.1906 10.866 11.6064 10.866 3.19593L14.866 3.19592C14.866 11.0731 16.879 22.7776 23.6031 32.4509C30.2474 42.0095 41.612 49.7733 60.8041 49.7733V53.7733C40.3318 53.7733 27.7274 45.3922 20.3187 34.734Z" fill="#0E0E0E"/>
<path fill-rule="evenodd" clip-rule="evenodd" d="M27.8355 31.3122C25.2084 27.794 23.2169 24.014 21.582 20.3008L25.2429 18.689C26.8018 22.2296 28.6519 25.72 31.0406 28.9189L27.8355 31.3122ZM42.7193 43.3674C38.4731 41.4386 34.9838 38.9636 32.0762 36.1496L34.858 33.2753C37.4501 35.7839 40.5613 37.9938 44.3736 39.7255L42.7193 43.3674Z" fill="#FFDA00"/>
</svg>
