<svg width="63" height="63" viewBox="0 0 63 63" fill="none" xmlns="http://www.w3.org/2000/svg">
<circle cx="31.5" cy="31.5" r="31.5" fill="#FFDA00"/>
<g clip-path="url(#clip0)">
<path d="M38.9994 27.5817V24.0003C38.9994 22.2889 37.7994 20.7464 35.6207 19.6571C33.699 18.6963 31.1701 18.1671 28.4997 18.1671C25.8291 18.1671 23.3 18.6963 21.3784 19.6571C19.1998 20.7464 18 22.2889 18 24.0003V28.6668V33.3331V37.9996C18 39.7111 19.1998 41.2535 21.3785 42.3428C23.3001 43.3036 25.8291 43.8327 28.4998 43.8327C30.5343 43.8327 32.4737 43.5292 34.1492 42.9536C35.2566 43.5155 36.5082 43.8327 37.8327 43.8327C42.3362 43.8327 46.0001 40.1688 46.0001 35.6653C46 31.558 42.9522 28.1496 38.9994 27.5817ZM20.3335 32.4024C20.6518 32.6175 20.9999 32.8207 21.3785 33.01C23.3001 33.9708 25.8292 34.5 28.4998 34.5C28.9209 34.5 29.3396 34.486 29.7543 34.4598C29.6959 34.8533 29.6652 35.2559 29.6652 35.6654C29.6652 36.0465 29.692 36.4215 29.7428 36.7888C29.3328 36.818 28.9176 36.8328 28.4998 36.8328C23.8259 36.8329 20.3335 34.9852 20.3335 33.3332V32.4024ZM30.5104 32.05C29.8553 32.1271 29.1815 32.1663 28.4997 32.1663C23.8259 32.1664 20.3335 30.3188 20.3335 28.6668V27.736C20.6518 27.9511 20.9999 28.1543 21.3785 28.3435C23.3001 29.3044 25.8292 29.8335 28.4998 29.8335C29.9366 29.8335 31.3314 29.679 32.6138 29.3878C31.7399 30.1155 31.0202 31.0218 30.5104 32.05ZM28.4997 20.5007C33.1735 20.5007 36.6657 22.3483 36.6657 24.0003C36.6657 25.6523 33.1735 27.5 28.4997 27.5C23.8259 27.5 20.3335 25.6523 20.3335 24.0003C20.3335 22.3483 23.8259 20.5007 28.4997 20.5007ZM20.3335 37.9996V37.069C20.6518 37.284 20.9999 37.4872 21.3785 37.6765C23.3001 38.6373 25.8291 39.1664 28.4998 39.1664C29.1439 39.1664 29.7834 39.1348 30.4112 39.0735C30.7671 39.8456 31.2398 40.5531 31.8069 41.173C30.7671 41.3859 29.6414 41.4993 28.4997 41.4993C23.8259 41.4993 20.3335 39.6516 20.3335 37.9996ZM37.8326 41.4993C34.6158 41.4993 31.9987 38.8822 31.9987 35.6654C31.9987 32.4577 34.6012 29.8469 37.8055 29.8322C37.8146 29.8325 37.8234 29.8336 37.8326 29.8336C37.8418 29.8336 37.8505 29.8325 37.8597 29.8322C41.064 29.8469 43.6665 32.4577 43.6665 35.6654C43.6665 38.8822 41.0494 41.4993 37.8326 41.4993Z" fill="#0E0E0E"/>
</g>
<defs>
<clipPath id="clip0">
<rect width="28" height="28" fill="white" transform="translate(18 17)"/>
</clipPath>
</defs>
</svg>
