<svg width="1440" height="515" viewBox="0 0 1440 515" fill="none" xmlns="http://www.w3.org/2000/svg">
<path d="M-131 242.118C-22.6981 254.28 186.054 194.996 312.871 201.897C533.307 213.893 635.992 614.824 943.688 443.55C1256.6 269.375 1202.61 2.96387 1594 2.96387" stroke="#5C5C5C" stroke-width="4"/>
<mask id="mask0" mask-type="alpha" maskUnits="userSpaceOnUse" x="-132" y="1" width="1726" height="488">
<path d="M-131 242.154C-22.6981 254.316 186.054 195.032 312.871 201.933C533.307 213.929 635.992 614.86 943.688 443.586C1256.6 269.411 1202.61 3 1594 3" stroke="#FFDA00" stroke-width="4"/>
</mask>
<g mask="url(#mask0)">
<rect x="-135" y="-0.963867" width="449" height="458" fill="#FFDA00"/>
</g>
<path d="M423.474 241.614L404.249 242.048L415.512 224.121L423.474 241.614Z" fill="#5C5C5C"/>
<path d="M1115.89 310.233L1110.39 328.66L1096.8 312.432L1115.89 310.233Z" fill="#5C5C5C"/>
<ellipse cx="629.501" cy="414.5" rx="31.5014" ry="31.5" fill="#0E0E0E"/>
<path d="M642.544 407.615C643.196 406.963 643.196 405.906 642.544 405.254C641.891 404.602 640.834 404.602 640.182 405.254L625.74 419.687L619.819 413.77C619.167 413.118 618.109 413.118 617.457 413.77C616.805 414.422 616.805 415.479 617.457 416.131L624.558 423.228C625.211 423.88 626.268 423.88 626.921 423.228L642.544 407.615Z" fill="#5C5C5C" stroke="#5C5C5C" stroke-width="0.5" stroke-linecap="round" stroke-linejoin="round"/>
<ellipse cx="958.501" cy="435.5" rx="31.5014" ry="31.5" fill="#0E0E0E"/>
<path d="M972.427 435.001V435.001C972.427 427.585 966.416 421.574 959.001 421.574C951.585 421.574 945.574 427.585 945.574 435.001C945.574 442.416 951.585 448.427 959.001 448.427H959.001C966.413 448.419 972.419 442.413 972.427 435.001ZM959.001 446.377C952.721 446.37 947.632 441.281 947.624 435.001C947.624 428.718 952.718 423.624 959.001 423.624C965.284 423.624 970.377 428.718 970.377 435.001C970.377 441.284 965.284 446.377 959.001 446.377Z" fill="#5C5C5C" stroke="#5C5C5C" stroke-width="0.5"/>
<path d="M963.457 432.056C962.981 432.164 962.48 432.356 962.108 432.701C961.644 432.163 960.939 431.915 960.075 431.915C959.718 431.915 959.212 431.942 958.703 432.058C958.225 432.168 957.72 432.364 957.341 432.715C956.877 432.162 956.169 431.915 955.29 431.915C954.924 431.915 954.4 431.941 953.878 432.064C953.416 432.173 952.931 432.363 952.563 432.698C952.458 431.963 951.722 431.456 950.938 431.456H950.765H950.515V431.706V442.963V443.022V443.144L950.611 443.219C951.246 443.716 951.655 443.975 952.184 444.276L952.399 444.398L952.523 444.185L952.558 444.126L952.592 444.067V444V439.364V435.335C952.592 434.846 952.901 434.383 953.401 434.03C953.899 433.679 954.546 433.467 955.134 433.467C955.358 433.467 955.501 433.506 955.595 433.557C955.683 433.606 955.743 433.674 955.786 433.769C955.832 433.869 955.86 433.999 955.875 434.163C955.889 434.328 955.889 434.51 955.889 434.713V436.623V436.873H956.139H957.7H957.95V436.623V434.713C957.95 434.559 957.936 434.396 957.921 434.242C958.431 433.769 959.218 433.452 959.919 433.452C960.143 433.452 960.286 433.491 960.38 433.542C960.468 433.591 960.528 433.66 960.571 433.754C960.617 433.854 960.645 433.984 960.66 434.149C960.674 434.313 960.674 434.495 960.674 434.698V436.609V436.859H960.924H962.45H962.485H962.735V436.609V434.698C962.735 434.532 962.721 434.368 962.706 434.213C963.216 433.755 964.002 433.452 964.687 433.452C964.911 433.452 965.054 433.491 965.148 433.542C965.236 433.591 965.296 433.66 965.339 433.754C965.385 433.854 965.413 433.984 965.427 434.149C965.442 434.313 965.442 434.495 965.442 434.697C965.442 434.698 965.442 434.698 965.442 434.698L965.425 443.999L965.424 444.43L965.799 444.217L965.675 444L965.799 444.217L965.799 444.217L965.799 444.217L965.799 444.216L965.801 444.215L965.808 444.212L965.832 444.197C965.854 444.185 965.885 444.167 965.924 444.144C966.002 444.098 966.111 444.033 966.237 443.955C966.489 443.8 966.812 443.592 967.09 443.385L967.091 443.385L967.386 443.162L967.485 443.087V442.963V434.727C967.485 433.84 967.273 433.127 966.81 432.636C966.345 432.142 965.666 431.915 964.825 431.915C964.468 431.915 963.963 431.942 963.457 432.056Z" fill="#5C5C5C" stroke="#5C5C5C" stroke-width="0.5"/>
<ellipse cx="485.501" cy="283.5" rx="31.5014" ry="31.5" fill="#0E0E0E"/>
<g clip-path="url(#clip0)">
<path d="M474.583 273.667C474.583 272.884 473.949 272.25 473.167 272.25C472.384 272.25 471.75 272.884 471.75 273.667V280.667C471.75 281.449 472.384 282.083 473.167 282.083H480.167C480.949 282.083 481.583 281.449 481.583 280.667C481.583 279.884 480.949 279.25 480.167 279.25H474.583V273.667Z" fill="#5C5C5C" stroke="#5C5C5C" stroke-width="0.5" stroke-linecap="round" stroke-linejoin="round"/>
<path d="M491.833 283.917C491.051 283.917 490.417 284.551 490.417 285.333C490.417 286.116 491.051 286.75 491.833 286.75H497.417V292.333C497.417 293.116 498.051 293.75 498.833 293.75C499.616 293.75 500.25 293.116 500.25 292.333V285.333C500.25 284.551 499.616 283.917 498.833 283.917H491.833Z" fill="#5C5C5C" stroke="#5C5C5C" stroke-width="0.5" stroke-linecap="round" stroke-linejoin="round"/>
<path d="M479.582 276.582L479.582 276.582C480.667 275.496 482.009 274.703 483.483 274.277C484.957 273.851 486.514 273.805 488.011 274.143C489.508 274.482 490.894 275.194 492.041 276.214C493.188 277.233 494.058 278.526 494.569 279.973C494.83 280.71 495.64 281.097 496.378 280.836C497.115 280.575 497.502 279.765 497.241 279.027C496.569 277.13 495.428 275.433 493.923 274.096C492.419 272.759 490.6 271.824 488.636 271.38C486.673 270.936 484.629 270.996 482.695 271.555C480.769 272.113 479.014 273.147 477.594 274.562L472.197 279.634C471.626 280.17 471.598 281.067 472.134 281.637C472.67 282.207 473.567 282.235 474.137 281.699L479.55 276.612L479.379 276.43L479.55 276.612C479.561 276.602 479.572 276.592 479.582 276.582ZM492.437 289.4L492.437 289.4L492.418 289.419C492.418 289.419 492.418 289.419 492.418 289.419C491.333 290.504 489.991 291.297 488.517 291.723C487.043 292.149 485.486 292.195 483.989 291.857C482.492 291.518 481.106 290.806 479.959 289.786C478.812 288.767 477.942 287.474 477.431 286.027C477.17 285.29 476.36 284.904 475.622 285.165C474.885 285.426 474.498 286.235 474.759 286.973C475.431 288.87 476.572 290.567 478.077 291.904C479.582 293.242 481.4 294.176 483.364 294.62C485.327 295.064 487.371 295.004 489.305 294.445C491.231 293.887 492.986 292.853 494.406 291.438L499.803 286.366C500.374 285.83 500.402 284.933 499.866 284.363C499.33 283.793 498.433 283.765 497.863 284.301L492.45 289.388L492.45 289.388L492.437 289.4Z" fill="#5C5C5C" stroke="#5C5C5C" stroke-width="0.5" stroke-linecap="round" stroke-linejoin="round"/>
</g>
<ellipse cx="803.501" cy="483.5" rx="31.5014" ry="31.5" fill="#0E0E0E"/>
<g clip-path="url(#clip1)">
<path d="M818 480.396L814.015 478.092V472.977H808.817V471.785L804 469L799.183 471.785V472.977H793.985V478.092L790 480.396V485.965L793.985 488.269V493.031H799.183V494.215L804 497L808.817 494.215V493.031H814.015V488.269L818 485.965V480.396ZM810.005 482.291L812.363 483.653V486.381L810.005 485.017V482.291ZM813.183 482.232L810.825 480.869L813.183 479.506L815.541 480.869L813.183 482.232ZM800.822 473.679L803.18 475.042V477.769L800.822 476.406V473.679ZM804.82 475.042L807.178 473.679V476.406L804.82 477.77V475.042ZM806.358 472.258L804 473.621L801.642 472.258L804 470.895L806.358 472.258ZM795.637 483.653L797.995 482.291V485.017L795.637 486.381V483.653ZM794.817 482.232L792.459 480.869L794.817 479.506L797.175 480.869L794.817 482.232ZM791.639 482.291L793.998 483.653V486.381L791.639 485.017V482.291ZM804 490.482L801.642 489.12L804 487.757L806.358 489.12L804 490.482ZM800.822 490.541L803.18 491.904V494.631L800.822 493.268V490.541ZM804.82 494.631V491.904L807.178 490.541V493.268L804.82 494.631ZM808.817 491.39V488.646L804 485.862L799.183 488.646V491.39H795.625V488.283L799.634 485.965V480.396L795.625 478.078V474.618H799.183V477.354L804 480.138L808.817 477.354V474.618H812.375V478.078L808.366 480.396V485.965L812.375 488.283V491.39H808.817ZM814.003 486.381V483.653L816.361 482.291V485.017L814.003 486.381Z" fill="#5C5C5C"/>
</g>
<ellipse cx="313.501" cy="206.5" rx="31.5014" ry="31.5" fill="#FFDA00"/>
<g clip-path="url(#clip2)">
<path d="M320.999 202.583V199.001C320.999 197.29 319.799 195.747 317.621 194.658C315.699 193.697 313.17 193.168 310.5 193.168C307.829 193.168 305.3 193.697 303.378 194.658C301.2 195.747 300 197.29 300 199.001V203.668V208.334V213.001C300 214.712 301.2 216.255 303.379 217.344C305.3 218.305 307.829 218.834 310.5 218.834C312.534 218.834 314.474 218.53 316.149 217.955C317.257 218.517 318.508 218.834 319.833 218.834C324.336 218.834 328 215.17 328 210.666C328 206.559 324.952 203.151 320.999 202.583ZM302.334 207.403C302.652 207.619 303 207.822 303.379 208.011C305.3 208.972 307.829 209.501 310.5 209.501C310.921 209.501 311.34 209.487 311.754 209.461C311.696 209.854 311.665 210.257 311.665 210.666C311.665 211.048 311.692 211.423 311.743 211.79C311.333 211.819 310.918 211.834 310.5 211.834C305.826 211.834 302.334 209.986 302.334 208.334V207.403ZM312.51 207.051C311.855 207.128 311.182 207.167 310.5 207.167C305.826 207.167 302.334 205.32 302.334 203.668V202.737C302.652 202.952 303 203.155 303.379 203.345C305.3 204.305 307.829 204.835 310.5 204.835C311.937 204.835 313.331 204.68 314.614 204.389C313.74 205.117 313.02 206.023 312.51 207.051ZM310.5 195.502C315.174 195.502 318.666 197.349 318.666 199.001C318.666 200.653 315.174 202.501 310.5 202.501C305.826 202.501 302.334 200.653 302.334 199.001C302.334 197.349 305.826 195.502 310.5 195.502ZM302.334 213.001V212.07C302.652 212.285 303 212.488 303.379 212.678C305.3 213.638 307.829 214.167 310.5 214.167C311.144 214.167 311.783 214.136 312.411 214.075C312.767 214.847 313.24 215.554 313.807 216.174C312.767 216.387 311.641 216.5 310.5 216.5C305.826 216.5 302.334 214.653 302.334 213.001ZM319.833 216.5C316.616 216.5 313.999 213.883 313.999 210.666C313.999 207.459 316.601 204.848 319.806 204.833C319.815 204.834 319.823 204.835 319.833 204.835C319.842 204.835 319.85 204.834 319.86 204.833C323.064 204.848 325.666 207.459 325.666 210.666C325.666 213.883 323.049 216.5 319.833 216.5Z" fill="#0E0E0E"/>
</g>
<defs>
<clipPath id="clip0">
<rect width="28" height="28" fill="white" transform="translate(472 269)"/>
</clipPath>
<clipPath id="clip1">
<rect width="28" height="28" fill="white" transform="translate(790 469)"/>
</clipPath>
<clipPath id="clip2">
<rect width="28" height="28" fill="white" transform="translate(300 192)"/>
</clipPath>
</defs>
</svg>
