<svg width="63" height="63" viewBox="0 0 63 63" fill="none" xmlns="http://www.w3.org/2000/svg">
<circle cx="31.5" cy="31.5" r="31.5" fill="#0E0E0E"/>
<g clip-path="url(#clip0)">
<path d="M47.2795 31.4824V31.4821C47.2795 22.7722 40.2147 15.7118 31.5001 15.7118C22.7855 15.7118 15.7207 22.7722 15.7207 31.4821C15.7207 40.1919 22.7855 47.2524 31.5001 47.2524H31.5004C40.2108 47.2426 47.2698 40.188 47.2795 31.4824ZM31.5004 44.9265C24.0741 44.9181 18.0562 38.9036 18.0477 31.482C18.0477 24.0571 24.0705 18.0377 31.5001 18.0377C38.9298 18.0377 44.9525 24.0571 44.9525 31.4821C44.9525 38.907 38.93 44.9263 31.5004 44.9265Z" fill="#5C5C5C" stroke="#5C5C5C" stroke-width="0.5"/>
<path d="M29.5402 28.8552C29.0055 28.1917 28.1744 27.8923 27.1273 27.8923C26.6985 27.8923 26.0847 27.9233 25.4738 28.0668C24.9046 28.2005 24.3112 28.438 23.8789 28.8643C23.8076 27.9787 22.938 27.3515 21.9985 27.3515H21.7942H21.5442V27.6015V40.8607V40.9305V41.0523L21.6401 41.1274C22.3866 41.7116 22.867 42.0149 23.4891 42.369L23.7037 42.4912L23.8285 42.2781L23.8694 42.2083L23.9036 42.1498V42.0819V36.6212V31.8758C23.9036 31.2803 24.2797 30.7233 24.8757 30.3027C25.4691 29.8839 26.2416 29.631 26.9434 29.631C27.2126 29.631 27.3897 29.6778 27.5082 29.7429C27.6222 29.8056 27.6987 29.8942 27.7532 30.013C27.8102 30.1373 27.8436 30.2959 27.861 30.4923C27.8784 30.6886 27.8786 30.9049 27.8786 31.1431V33.3937V33.6437H28.1286H29.9676H30.2176V33.3937V31.1431C30.2176 30.9575 30.1999 30.7593 30.1816 30.5712C30.7905 29.998 31.7385 29.6135 32.583 29.6135C32.8523 29.6135 33.0293 29.6603 33.1478 29.7255C33.2618 29.7881 33.3383 29.8767 33.3928 29.9956C33.4499 30.1198 33.4833 30.2784 33.5006 30.4749C33.518 30.6712 33.5182 30.8875 33.5182 31.1256V33.3762V33.6262H33.7682H35.5663H35.6072H35.8572V33.3762V31.1256C35.8572 30.9248 35.8396 30.7256 35.8213 30.5368C36.4297 29.9816 37.3766 29.6135 38.2022 29.6135C38.4715 29.6135 38.6485 29.6603 38.767 29.7255C38.881 29.7881 38.9575 29.8767 39.012 29.9956C39.069 30.1198 39.1025 30.2784 39.1198 30.4749C39.1372 30.671 39.1374 30.8872 39.1374 31.1252C39.1374 31.1253 39.1374 31.1255 39.1374 31.1256L39.1169 42.0815L39.1161 42.5124L39.4906 42.2992L39.3669 42.0819L39.4906 42.2992L39.4907 42.2992L39.4909 42.2991L39.4914 42.2988L39.4934 42.2976L39.5011 42.2932L39.5302 42.2765C39.5554 42.2619 39.5919 42.2407 39.6377 42.2137C39.7292 42.1599 39.8578 42.0832 40.0064 41.9916C40.3025 41.8092 40.6825 41.5649 41.0078 41.323L41.009 41.3221L41.3564 41.0604L41.456 40.9854V40.8607V31.1605C41.456 30.1214 41.2074 29.2946 40.6727 28.7275C40.1353 28.1577 39.349 27.8923 38.3657 27.8923C37.9466 27.8923 37.3543 27.9234 36.7625 28.0577C36.191 28.1874 35.5928 28.4193 35.1589 28.8382C34.6248 28.1925 33.7957 27.8923 32.7669 27.8923C32.3478 27.8923 31.7552 27.9234 31.1606 28.06C30.5854 28.1922 29.9831 28.4287 29.5402 28.8552Z" fill="#5C5C5C" stroke="#5C5C5C" stroke-width="0.5"/>
</g>
<defs>
<clipPath id="clip0">
<rect width="33" height="32.9806" fill="white" transform="translate(15 14.9912)"/>
</clipPath>
</defs>
</svg>
