<svg width="63" height="63" viewBox="0 0 63 63" fill="none" xmlns="http://www.w3.org/2000/svg">
<circle cx="31.5" cy="31.5" r="31.5" fill="#0E0E0E"/>
<g clip-path="url(#clip0)">
<path d="M46 28.3791L42.0146 26.0767V20.9648H36.8171V19.773L32.0001 16.99L27.1829 19.773V20.9648H21.9854V26.0768L18 28.3791V33.9451L21.9854 36.2474V41.0069H27.1829V42.1906L32.0001 44.9736L36.8171 42.1906V41.0069H42.0146V36.2475L46 33.9451V28.3791ZM38.0049 30.2728L40.3633 31.6347V34.3605L38.0049 32.998V30.2728ZM41.1829 30.2142L38.8248 28.8525L41.1829 27.4901L43.541 28.8525L41.1829 30.2142ZM28.8221 21.6666L31.1804 23.0285V25.7543L28.8221 24.3919V21.6666ZM32.8196 23.0285L35.1779 21.6666V24.3919L32.8196 25.7544V23.0285ZM34.3581 20.2463L32.0001 21.608L29.6419 20.2463L32.0001 18.8839L34.3581 20.2463ZM23.6368 31.6347L25.9951 30.2728V32.9981L23.6368 34.3605V31.6347ZM22.8172 30.2142L20.4591 28.8525L22.8172 27.4901L25.1753 28.8525L22.8172 30.2142ZM19.6392 30.2728L21.9976 31.6347V34.3605L19.6392 32.998V30.2728ZM32.0001 38.4598L29.6419 37.0981L32.0001 35.7357L34.3581 37.0981L32.0001 38.4598ZM28.8221 38.5183L31.1804 39.8802V42.6061L28.8221 41.2436V38.5183ZM32.8196 42.6061V39.8802L35.1779 38.5183V41.2436L32.8196 42.6061ZM36.8171 39.3666V36.6247L32.0001 33.8418L27.1829 36.6247V39.3666H23.6246V36.2616L27.6344 33.9451V28.3791L23.6246 26.0626V22.605H27.1829V25.3389L32.0001 28.1218L36.8171 25.3389V22.605H40.3754V26.0627L36.3657 28.3791V33.9451L40.3755 36.2615V39.3666H36.8171ZM42.0025 34.3605V31.6347L44.3608 30.2728V32.9981L42.0025 34.3605Z" fill="#5C5C5C"/>
</g>
<defs>
<clipPath id="clip0">
<rect width="28" height="27.9836" fill="white" transform="translate(18 16.99)"/>
</clipPath>
</defs>
</svg>
