<svg width="63" height="63" viewBox="0 0 63 63" fill="none" xmlns="http://www.w3.org/2000/svg">
<circle cx="31.5" cy="31.5" r="31.5" fill="#0E0E0E"/>
<g clip-path="url(#clip0)">
<path d="M20.5833 22.6667C20.5833 21.8843 19.9491 21.2501 19.1667 21.2501C18.3843 21.2501 17.75 21.8843 17.75 22.6667V29.6667C17.75 30.4491 18.3843 31.0834 19.1667 31.0834H26.1667C26.9491 31.0834 27.5833 30.4491 27.5833 29.6667C27.5833 28.8843 26.9491 28.2501 26.1667 28.2501H20.5833V22.6667Z" fill="#5C5C5C" stroke="#5C5C5C" stroke-width="0.5" stroke-linecap="round" stroke-linejoin="round"/>
<path d="M37.8334 32.9167C37.051 32.9167 36.4167 33.551 36.4167 34.3334C36.4167 35.1158 37.051 35.7501 37.8334 35.7501H43.4167V41.3334C43.4167 42.1158 44.051 42.7501 44.8334 42.7501C45.6158 42.7501 46.2501 42.1158 46.2501 41.3334V34.3334C46.2501 33.551 45.6158 32.9167 44.8334 32.9167H37.8334Z" fill="#5C5C5C" stroke="#5C5C5C" stroke-width="0.5" stroke-linecap="round" stroke-linejoin="round"/>
<path d="M25.582 25.5815L25.582 25.5815C26.6667 24.4963 28.0086 23.7035 29.4826 23.2772C30.9565 22.8508 32.5145 22.8048 34.011 23.1434C35.5076 23.482 36.894 24.1942 38.0408 25.2136C39.1877 26.2329 40.0576 27.5262 40.5695 28.9727C40.8305 29.7102 41.64 30.0966 42.3776 29.8356C43.1152 29.5746 43.5015 28.765 43.2405 28.0275C42.569 26.1298 41.4277 24.4331 39.9231 23.0958C38.4185 21.7585 36.5997 20.8242 34.6363 20.38C32.6729 19.9357 30.629 19.9961 28.6953 20.5554C26.7689 21.1126 25.0144 22.1469 23.5942 23.5624L18.1966 28.6343C17.6264 29.1701 17.5985 30.0666 18.1343 30.6368C18.67 31.207 19.5666 31.2349 20.1368 30.6991L25.5501 25.6125L25.3789 25.4303L25.5501 25.6125C25.5609 25.6023 25.5715 25.592 25.582 25.5815ZM38.4371 38.3998L38.437 38.3999L38.418 38.4186C38.418 38.4186 38.418 38.4186 38.418 38.4186C37.3333 39.5038 35.9914 40.2966 34.5174 40.7229C33.0435 41.1493 31.4855 41.1953 29.989 40.8567C28.4924 40.5181 27.106 39.8059 25.9592 38.7865C24.8123 37.7672 23.9424 36.4739 23.4305 35.0275C23.1695 34.2899 22.36 33.9035 21.6224 34.1645C20.8848 34.4255 20.4985 35.2351 20.7595 35.9727C21.431 37.8703 22.5723 39.567 24.0769 40.9043C25.5815 42.2416 27.4003 43.1759 29.3637 43.6202C31.3271 44.0644 33.371 44.004 35.3047 43.4447C37.2311 42.8875 38.9856 41.8532 40.4058 40.4377L45.8034 35.3658C46.3736 34.83 46.4015 33.9335 45.8657 33.3633C45.33 32.7931 44.4334 32.7652 43.8632 33.301L38.45 38.3876L38.4499 38.3877L38.4371 38.3998Z" fill="#5C5C5C" stroke="#5C5C5C" stroke-width="0.5" stroke-linecap="round" stroke-linejoin="round"/>
</g>
<defs>
<clipPath id="clip0">
<rect width="28" height="28" fill="white" transform="translate(18 18.0001)"/>
</clipPath>
</defs>
</svg>
