<svg width="68" height="68" viewBox="0 0 68 68" fill="none" xmlns="http://www.w3.org/2000/svg">
<path d="M32.7476 17.7783C32.7476 20.237 30.7328 22.2302 28.2476 22.2302C25.7623 22.2302 23.7476 20.237 23.7476 17.7783C23.7476 15.3196 25.7623 13.3264 28.2476 13.3264C30.7328 13.3264 32.7476 15.3196 32.7476 17.7783Z" fill="#FFDA00"/>
<path fill-rule="evenodd" clip-rule="evenodd" d="M36.7476 17.7783C36.7476 22.4866 32.9013 26.2302 28.2476 26.2302C23.5938 26.2302 19.7476 22.4866 19.7476 17.7783C19.7476 13.07 23.5938 9.32642 28.2476 9.32642C32.9013 9.32642 36.7476 13.07 36.7476 17.7783ZM28.2476 22.2302C30.7328 22.2302 32.7476 20.237 32.7476 17.7783C32.7476 15.3196 30.7328 13.3264 28.2476 13.3264C25.7623 13.3264 23.7476 15.3196 23.7476 17.7783C23.7476 20.237 25.7623 22.2302 28.2476 22.2302Z" fill="#0E0E0E"/>
<path d="M53.2524 8.4519C53.2524 10.9106 51.2377 12.9038 48.7524 12.9038C46.2672 12.9038 44.2524 10.9106 44.2524 8.4519C44.2524 5.99318 46.2672 4 48.7524 4C51.2377 4 53.2524 5.99318 53.2524 8.4519Z" fill="#FFDA00"/>
<path fill-rule="evenodd" clip-rule="evenodd" d="M57.2524 8.4519C57.2524 13.1602 53.4062 16.9038 48.7524 16.9038C44.0987 16.9038 40.2524 13.1602 40.2524 8.4519C40.2524 3.74363 44.0987 0 48.7524 0C53.4062 0 57.2524 3.74363 57.2524 8.4519ZM48.7524 12.9038C51.2377 12.9038 53.2524 10.9106 53.2524 8.4519C53.2524 5.99318 51.2377 4 48.7524 4C46.2672 4 44.2524 5.99318 44.2524 8.4519C44.2524 10.9106 46.2672 12.9038 48.7524 12.9038Z" fill="#0E0E0E"/>
<path d="M66 66.0001H2V21.4161H66V66.0001Z" fill="white"/>
<path fill-rule="evenodd" clip-rule="evenodd" d="M0 12.5559H16.8772V16.5559H4.00001L4.00002 19.4161H68V68.0001H2.46763e-05L0 12.5559ZM4.00002 23.4161V64.0001H64V23.4161H4.00002Z" fill="#0E0E0E"/>
<path fill-rule="evenodd" clip-rule="evenodd" d="M45.9805 33.4563H65.9805V37.4563H49.9805V45.328H65.9805V49.328H45.9805V33.4563Z" fill="#0E0E0E"/>
</svg>
